  0
SECTION
  2
HEADER
  9
$ACADVER
  1
AC1014
  9
$HANDSEED
  5
FFFF
  9
$INSUNITS
 70
     4
  9
$MEASUREMENT
 70
     1
  0
ENDSEC
  0
SECTION
  2
TABLES
  0
TABLE
  2
VPORT
  5
8
330
0
100
AcDbSymbolTable
 70
     4
  0
VPORT
  5
2E
330
8
100
AcDbSymbolTableRecord
100
AcDbViewportTableRecord
  2
*ACTIVE
 70
     0
 10
0.0
 20
0.0
 11
1.0
 21
1.0
 12
210.0
 22
148.5
 13
0.0
 23
0.0
 14
10.0
 24
10.0
 15
10.0
 25
10.0
 16
0.0
 26
0.0
 36
1.0
 17
0.0
 27
0.0
 37
0.0
 40
341.0
 41
1.24
 42
50.0
 43
0.0
 44
0.0
 50
0.0
 51
0.0
 71
     0
 72
   100
 73
     1
 74
     3
 75
     0
 76
     0
 77
     0
 78
     0
  0
ENDTAB
  0
TABLE
  2
LTYPE
  5
5
330
0
100
AcDbSymbolTable
 70
     1
  0
LTYPE
  5
14
330
5
100
AcDbSymbolTableRecord
100
AcDbLinetypeTableRecord
  2
BYBLOCK
 70
     0
  3

 72
    65
 73
     0
 40
0.0
  0
LTYPE
  5
15
330
5
100
AcDbSymbolTableRecord
100
AcDbLinetypeTableRecord
  2
BYLAYER
 70
     0
  3

 72
    65
 73
     0
 40
0.0
  0
LTYPE
  5
16
330
5
100
AcDbSymbolTableRecord
100
AcDbLinetypeTableRecord
  2
CONTINUOUS
 70
     0
  3
Solid line
 72
    65
 73
     0
 40
0.0
  0
ENDTAB
  0
TABLE
  2
LAYER
  5
2
100
AcDbSymbolTable
 70
1
  0
LAYER
  5
50
100
AcDbSymbolTableRecord
100
AcDbLayerTableRecord
  2
0
 70
0
  6
CONTINUOUS
  0
ENDTAB
  0
TABLE
  2
STYLE
  5
3
330
0
100
AcDbSymbolTable
 70
     1
  0
STYLE
  5
11
330
3
100
AcDbSymbolTableRecord
100
AcDbTextStyleTableRecord
  2
STANDARD
 70
     0
 40
0.0
 41
1.0
 50
0.0
 71
     0
 42
2.5
  3
txt
  4

  0
ENDTAB
  0
TABLE
  2
VIEW
  5
6
330
0
100
AcDbSymbolTable
 70
     0
  0
ENDTAB
  0
TABLE
  2
UCS
  5
7
330
0
100
AcDbSymbolTable
 70
     0
  0
ENDTAB
  0
TABLE
  2
APPID
  5
9
330
0
100
AcDbSymbolTable
 70
     2
  0
APPID
  5
12
330
9
100
AcDbSymbolTableRecord
100
AcDbRegAppTableRecord
  2
ACAD
 70
     0
  0
ENDTAB
  0
TABLE
  2
DIMSTYLE
  5
A
330
0
100
AcDbSymbolTable
 70
     1
  0
DIMSTYLE
105
27
330
A
100
AcDbSymbolTableRecord
100
AcDbDimStyleTableRecord
  2
ISO-25
 70
     0
  3

  4

  5

  6

  7

 40
1.0
 41
2.5
 42
0.625
 43
3.75
 44
1.25
 45
0.0
 46
0.0
 47
0.0
 48
0.0
140
2.5
141
2.5
142
0.0
143
0.03937007874016
144
1.0
145
0.0
146
1.0
147
0.625
 71
     0
 72
     0
 73
     0
 74
     0
 75
     0
 76
     0
 77
     1
 78
     8
170
     0
171
     3
172
     1
173
     0
174
     0
175
     0
176
     0
177
     0
178
     0
270
     2
271
     2
272
     2
273
     2
274
     3
340
11
275
     0
280
     0
281
     0
282
     0
283
     0
284
     8
285
     0
286
     0
287
     3
288
     0
  0
ENDTAB
  0
TABLE
  2
BLOCK_RECORD
  5
1
330
0
100
AcDbSymbolTable
 70
     1
  0
BLOCK_RECORD
  5
1F
330
1
100
AcDbSymbolTableRecord
100
AcDbBlockTableRecord
  2
*MODEL_SPACE
  0
BLOCK_RECORD
  5
1B
330
1
100
AcDbSymbolTableRecord
100
AcDbBlockTableRecord
  2
*PAPER_SPACE
  0
ENDTAB
  0
ENDSEC
  0
SECTION
  2
BLOCKS
  0
BLOCK
  5
20
330
1F
100
AcDbEntity
  8
0
100
AcDbBlockBegin
  2
*MODEL_SPACE
 70
     0
 10
0.0
 20
0.0
 30
0.0
  3
*MODEL_SPACE
  1

  0
ENDBLK
  5
21
330
1F
100
AcDbEntity
  8
0
100
AcDbBlockEnd
  0
BLOCK
  5
1C
330
1B
100
AcDbEntity
 67
     1
  8
0
100
AcDbBlockBegin
  2
*PAPER_SPACE
  1

  0
ENDBLK
  5
1D
330
1B
100
AcDbEntity
 67
     1
  8
0
100
AcDbBlockEnd
  0
ENDSEC
  0
SECTION
  2
ENTITIES
  0
LWPOLYLINE
  5
100
100
AcDbEntity
  8
0
 62
2
100
AcDbPolyline
 90
85
 70
1
 10
2.000000
 20
187.000000
 30
0.0
 10
2.162527
 20
185.387713
 30
0.0
 10
2.628674
 20
183.886022
 30
0.0
 10
3.366270
 20
182.527099
 30
0.0
 10
4.343145
 20
181.343115
 30
0.0
 10
5.527129
 20
180.366239
 30
0.0
 10
6.886051
 20
179.628643
 30
0.0
 10
8.387741
 20
179.162496
 30
0.0
 10
10.000028
 20
178.999970
 30
0.0
 10
15.000000
 20
176.000000
 30
0.0
 10
14.999722
 20
157.000280
 30
0.0
 10
15.101274
 20
155.992544
 30
0.0
 10
15.392609
 20
155.053936
 30
0.0
 10
15.853617
 20
154.204564
 30
0.0
 10
16.464190
 20
153.464538
 30
0.0
 10
17.204217
 20
152.853966
 30
0.0
 10
18.053590
 20
152.392958
 30
0.0
 10
18.992199
 20
152.101623
 30
0.0
 10
19.999934
 20
152.000070
 30
0.0
 10
47.999775
 20
152.000070
 30
0.0
 10
103.000040
 20
152.000070
 30
0.0
 10
105.349760
 20
155.760050
 30
0.0
 10
106.803167
 20
157.535353
 30
0.0
 10
108.626615
 20
158.869239
 30
0.0
 10
110.724180
 20
159.708543
 30
0.0
 10
112.999940
 20
160.000100
 30
0.0
 10
189.999890
 20
160.000100
 30
0.0
 10
191.007626
 20
160.101650
 30
0.0
 10
191.946236
 20
160.392984
 30
0.0
 10
192.795609
 20
160.853991
 30
0.0
 10
193.535638
 20
161.464564
 30
0.0
 10
194.146211
 20
162.204591
 30
0.0
 10
194.607221
 20
163.053965
 30
0.0
 10
194.898557
 20
163.992574
 30
0.0
 10
195.000110
 20
165.000310
 30
0.0
 10
195.000000
 20
176.000000
 30
0.0
 10
199.999800
 20
178.999970
 30
0.0
 10
202.087191
 20
179.276937
 30
0.0
 10
203.999880
 20
180.071876
 30
0.0
 10
205.644594
 20
181.330932
 30
0.0
 10
206.928060
 20
183.000250
 30
0.0
 10
207.731912
 20
184.946410
 30
0.0
 10
207.999862
 20
187.000265
 30
0.0
 10
207.731912
 20
189.054120
 30
0.0
 10
206.928060
 20
191.000280
 30
0.0
 10
205.644520
 20
192.669452
 30
0.0
 10
203.999786
 20
193.928362
 30
0.0
 10
202.087125
 20
194.723169
 30
0.0
 10
199.999800
 20
195.000030
 30
0.0
 10
195.000000
 20
198.000003
 30
0.0
 10
195.000110
 20
209.000218
 30
0.0
 10
194.898557
 20
210.007954
 30
0.0
 10
194.607221
 20
210.946564
 30
0.0
 10
194.146211
 20
211.795937
 30
0.0
 10
193.535638
 20
212.535964
 30
0.0
 10
192.795609
 20
213.146536
 30
0.0
 10
191.946236
 20
213.607544
 30
0.0
 10
191.007626
 20
213.898878
 30
0.0
 10
189.999890
 20
214.000428
 30
0.0
 10
112.999940
 20
214.000428
 30
0.0
 10
110.724239
 20
214.291887
 30
0.0
 10
108.626697
 20
215.131066
 30
0.0
 10
106.803232
 20
216.464812
 30
0.0
 10
105.349760
 20
218.239968
 30
0.0
 10
103.000040
 20
222.000458
 30
0.0
 10
60.000083
 20
222.000458
 30
0.0
 10
19.999934
 20
222.000458
 30
0.0
 10
18.992199
 20
221.898907
 30
0.0
 10
18.053590
 20
221.607572
 30
0.0
 10
17.204217
 20
221.146564
 30
0.0
 10
16.464190
 20
220.535992
 30
0.0
 10
15.853617
 20
219.795964
 30
0.0
 10
15.392609
 20
218.946592
 30
0.0
 10
15.101274
 20
218.007983
 30
0.0
 10
14.999722
 20
217.000248
 30
0.0
 10
15.000000
 20
198.000003
 30
0.0
 10
10.000028
 20
195.000030
 30
0.0
 10
8.387741
 20
194.837498
 30
0.0
 10
6.886051
 20
194.371349
 30
0.0
 10
5.527129
 20
193.633752
 30
0.0
 10
4.343146
 20
192.656878
 30
0.0
 10
3.366271
 20
191.472895
 30
0.0
 10
2.628674
 20
190.113975
 30
0.0
 10
2.162527
 20
188.612287
 30
0.0
 10
2.000000
 20
187.000000
 30
0.0
  0
LWPOLYLINE
  5
101
100
AcDbEntity
  8
0
 62
2
100
AcDbPolyline
 90
32
 70
1
 10
3.999878
 20
187.000000
 30
0.0
 10
4.157070
 20
187.778420
 30
0.0
 10
4.585664
 20
188.414090
 30
0.0
 10
5.221334
 20
188.842685
 30
0.0
 10
5.999756
 20
188.999880
 30
0.0
 10
7.545915
 20
188.999880
 30
0.0
 10
8.185854
 20
189.832644
 30
0.0
 10
9.005685
 20
190.461404
 30
0.0
 10
9.959143
 20
190.859371
 30
0.0
 10
10.999966
 20
190.999760
 30
0.0
 10
11.806035
 20
190.918459
 30
0.0
 10
12.556810
 20
190.685376
 30
0.0
 10
13.828150
 20
189.828188
 30
0.0
 10
14.685338
 20
188.556845
 30
0.0
 10
14.918421
 20
187.806070
 30
0.0
 10
14.999722
 20
187.000000
 30
0.0
 10
14.918419
 20
186.193931
 30
0.0
 10
14.685335
 20
185.443157
 30
0.0
 10
13.828147
 20
184.171818
 30
0.0
 10
12.556808
 20
183.314632
 30
0.0
 10
11.806034
 20
183.081550
 30
0.0
 10
10.999966
 20
183.000250
 30
0.0
 10
9.959352
 20
183.140794
 30
0.0
 10
9.006067
 20
183.538646
 30
0.0
 10
8.186347
 20
184.167141
 30
0.0
 10
7.546431
 20
184.999610
 30
0.0
 10
5.999756
 20
184.999610
 30
0.0
 10
5.999756
 20
185.000120
 30
0.0
 10
5.221334
 20
185.157315
 30
0.0
 10
4.585664
 20
185.585910
 30
0.0
 10
4.157070
 20
186.221580
 30
0.0
 10
3.999878
 20
187.000000
 30
0.0
  0
LWPOLYLINE
  5
102
100
AcDbEntity
  8
0
 62
2
100
AcDbPolyline
 90
4
 70
1
 10
17.000117
 20
161.999980
 30
0.0
 10
17.000117
 20
172.000400
 30
0.0
 10
18.999995
 20
172.000400
 30
0.0
 10
18.999995
 20
161.999980
 30
0.0
  0
LWPOLYLINE
  5
103
100
AcDbEntity
  8
0
 62
2
100
AcDbPolyline
 90
4
 70
1
 10
17.000117
 20
182.000310
 30
0.0
 10
17.000117
 20
192.000220
 30
0.0
 10
18.999995
 20
192.000220
 30
0.0
 10
18.999995
 20
182.000310
 30
0.0
  0
LWPOLYLINE
  5
104
100
AcDbEntity
  8
0
 62
2
100
AcDbPolyline
 90
4
 70
1
 10
17.000117
 20
202.000128
 30
0.0
 10
17.000117
 20
212.000038
 30
0.0
 10
18.999995
 20
212.000038
 30
0.0
 10
18.999995
 20
202.000128
 30
0.0
  0
LWPOLYLINE
  5
105
100
AcDbEntity
  8
0
 62
2
100
AcDbPolyline
 90
4
 70
1
 10
22.999751
 20
154.000470
 30
0.0
 10
22.999751
 20
156.000340
 30
0.0
 10
32.999657
 20
156.000340
 30
0.0
 10
32.999657
 20
154.000470
 30
0.0
  0
LWPOLYLINE
  5
106
100
AcDbEntity
  8
0
 62
2
100
AcDbPolyline
 90
4
 70
1
 10
22.999751
 20
218.000188
 30
0.0
 10
22.999751
 20
220.000068
 30
0.0
 10
32.999657
 20
220.000068
 30
0.0
 10
32.999657
 20
218.000188
 30
0.0
  0
LWPOLYLINE
  5
107
100
AcDbEntity
  8
0
 62
2
100
AcDbPolyline
 90
4
 70
1
 10
43.000080
 20
154.000470
 30
0.0
 10
43.000080
 20
156.000340
 30
0.0
 10
52.999989
 20
156.000340
 30
0.0
 10
52.999989
 20
154.000470
 30
0.0
  0
LWPOLYLINE
  5
108
100
AcDbEntity
  8
0
 62
2
100
AcDbPolyline
 90
4
 70
1
 10
43.000080
 20
218.000188
 30
0.0
 10
43.000080
 20
220.000068
 30
0.0
 10
52.999989
 20
220.000068
 30
0.0
 10
52.999989
 20
218.000188
 30
0.0
  0
LWPOLYLINE
  5
109
100
AcDbEntity
  8
0
 62
2
100
AcDbPolyline
 90
17
 70
1
 10
52.819636
 20
163.945080
 30
0.0
 10
52.917858
 20
164.431667
 30
0.0
 10
53.185755
 20
164.829016
 30
0.0
 10
53.583106
 20
165.096910
 30
0.0
 10
54.069693
 20
165.195130
 30
0.0
 10
54.556278
 20
165.096908
 30
0.0
 10
54.953627
 20
164.829013
 30
0.0
 10
55.221521
 20
164.431663
 30
0.0
 10
55.319743
 20
163.945080
 30
0.0
 10
55.221521
 20
163.458497
 30
0.0
 10
54.953627
 20
163.061148
 30
0.0
 10
54.556278
 20
162.793252
 30
0.0
 10
54.069693
 20
162.695030
 30
0.0
 10
53.583106
 20
162.793250
 30
0.0
 10
53.185755
 20
163.061144
 30
0.0
 10
52.917858
 20
163.458493
 30
0.0
 10
52.819636
 20
163.945080
 30
0.0
  0
LWPOLYLINE
  5
10a
100
AcDbEntity
  8
0
 62
2
100
AcDbPolyline
 90
17
 70
1
 10
52.820153
 20
210.055448
 30
0.0
 10
52.918373
 20
210.542038
 30
0.0
 10
53.186269
 20
210.939391
 30
0.0
 10
53.583623
 20
211.207288
 30
0.0
 10
54.070213
 20
211.305508
 30
0.0
 10
54.556800
 20
211.207285
 30
0.0
 10
54.954150
 20
210.939388
 30
0.0
 10
55.222044
 20
210.542036
 30
0.0
 10
55.320263
 20
210.055448
 30
0.0
 10
55.222041
 20
209.568863
 30
0.0
 10
54.954147
 20
209.171514
 30
0.0
 10
54.556798
 20
208.903620
 30
0.0
 10
54.070213
 20
208.805398
 30
0.0
 10
53.583625
 20
208.903617
 30
0.0
 10
53.186273
 20
209.171511
 30
0.0
 10
52.918376
 20
209.568861
 30
0.0
 10
52.820153
 20
210.055448
 30
0.0
  0
LWPOLYLINE
  5
10b
100
AcDbEntity
  8
0
 62
2
100
AcDbPolyline
 90
4
 70
1
 10
62.999893
 20
154.000470
 30
0.0
 10
62.999893
 20
156.000340
 30
0.0
 10
72.999803
 20
156.000340
 30
0.0
 10
72.999803
 20
154.000470
 30
0.0
  0
LWPOLYLINE
  5
10c
100
AcDbEntity
  8
0
 62
2
100
AcDbPolyline
 90
4
 70
1
 10
62.999893
 20
218.000188
 30
0.0
 10
62.999893
 20
220.000068
 30
0.0
 10
72.999803
 20
220.000068
 30
0.0
 10
72.999803
 20
218.000188
 30
0.0
  0
LWPOLYLINE
  5
10d
100
AcDbEntity
  8
0
 62
2
100
AcDbPolyline
 90
17
 70
1
 10
68.830033
 20
163.945080
 30
0.0
 10
68.928255
 20
164.431663
 30
0.0
 10
69.196149
 20
164.829013
 30
0.0
 10
69.593498
 20
165.096908
 30
0.0
 10
70.080083
 20
165.195130
 30
0.0
 10
70.566668
 20
165.096908
 30
0.0
 10
70.964017
 20
164.829013
 30
0.0
 10
71.231911
 20
164.431663
 30
0.0
 10
71.330133
 20
163.945080
 30
0.0
 10
71.231911
 20
163.458497
 30
0.0
 10
70.964017
 20
163.061148
 30
0.0
 10
70.566668
 20
162.793252
 30
0.0
 10
70.080083
 20
162.695030
 30
0.0
 10
69.593498
 20
162.793252
 30
0.0
 10
69.196149
 20
163.061148
 30
0.0
 10
68.928255
 20
163.458497
 30
0.0
 10
68.830033
 20
163.945080
 30
0.0
  0
LWPOLYLINE
  5
10e
100
AcDbEntity
  8
0
 62
2
100
AcDbPolyline
 90
17
 70
1
 10
68.830033
 20
210.055448
 30
0.0
 10
68.928252
 20
210.542036
 30
0.0
 10
69.196146
 20
210.939388
 30
0.0
 10
69.593496
 20
211.207285
 30
0.0
 10
70.080083
 20
211.305508
 30
0.0
 10
70.566670
 20
211.207285
 30
0.0
 10
70.964020
 20
210.939388
 30
0.0
 10
71.231914
 20
210.542036
 30
0.0
 10
71.330133
 20
210.055448
 30
0.0
 10
71.231911
 20
209.568863
 30
0.0
 10
70.964017
 20
209.171514
 30
0.0
 10
70.566668
 20
208.903620
 30
0.0
 10
70.080083
 20
208.805398
 30
0.0
 10
69.593498
 20
208.903620
 30
0.0
 10
69.196149
 20
209.171514
 30
0.0
 10
68.928255
 20
209.568863
 30
0.0
 10
68.830033
 20
210.055448
 30
0.0
  0
LWPOLYLINE
  5
10f
100
AcDbEntity
  8
0
 62
2
100
AcDbPolyline
 90
17
 70
1
 10
81.999773
 20
163.799870
 30
0.0
 10
82.078222
 20
164.189247
 30
0.0
 10
82.292486
 20
164.507249
 30
0.0
 10
82.610378
 20
164.721674
 30
0.0
 10
82.999713
 20
164.800320
 30
0.0
 10
83.389048
 20
164.721674
 30
0.0
 10
83.706940
 20
164.507249
 30
0.0
 10
83.921204
 20
164.189247
 30
0.0
 10
83.999653
 20
163.799870
 30
0.0
 10
83.921057
 20
163.410657
 30
0.0
 10
83.706760
 20
163.092821
 30
0.0
 10
83.388924
 20
162.878525
 30
0.0
 10
82.999713
 20
162.799930
 30
0.0
 10
82.610502
 20
162.878525
 30
0.0
 10
82.292666
 20
163.092821
 30
0.0
 10
82.078369
 20
163.410657
 30
0.0
 10
81.999773
 20
163.799870
 30
0.0
  0
LWPOLYLINE
  5
110
100
AcDbEntity
  8
0
 62
2
100
AcDbPolyline
 90
17
 70
1
 10
81.999773
 20
210.500388
 30
0.0
 10
82.078369
 20
210.889599
 30
0.0
 10
82.292666
 20
211.207435
 30
0.0
 10
82.610502
 20
211.421732
 30
0.0
 10
82.999713
 20
211.500328
 30
0.0
 10
83.388924
 20
211.421732
 30
0.0
 10
83.706760
 20
211.207435
 30
0.0
 10
83.921057
 20
210.889599
 30
0.0
 10
83.999653
 20
210.500388
 30
0.0
 10
83.921207
 20
210.111010
 30
0.0
 10
83.706944
 20
209.793005
 30
0.0
 10
83.389050
 20
209.578577
 30
0.0
 10
82.999713
 20
209.499928
 30
0.0
 10
82.610376
 20
209.578577
 30
0.0
 10
82.292482
 20
209.793005
 30
0.0
 10
82.078219
 20
210.111010
 30
0.0
 10
81.999773
 20
210.500388
 30
0.0
  0
LWPOLYLINE
  5
111
100
AcDbEntity
  8
0
 62
2
100
AcDbPolyline
 90
4
 70
1
 10
82.999713
 20
154.000470
 30
0.0
 10
82.999713
 20
156.000340
 30
0.0
 10
93.000133
 20
156.000340
 30
0.0
 10
93.000133
 20
154.000470
 30
0.0
  0
LWPOLYLINE
  5
112
100
AcDbEntity
  8
0
 62
2
100
AcDbPolyline
 90
4
 70
1
 10
82.999713
 20
218.000188
 30
0.0
 10
82.999713
 20
220.000068
 30
0.0
 10
93.000133
 20
220.000068
 30
0.0
 10
93.000133
 20
218.000188
 30
0.0
  0
LWPOLYLINE
  5
113
100
AcDbEntity
  8
0
 62
2
100
AcDbPolyline
 90
17
 70
1
 10
93.000133
 20
163.800390
 30
0.0
 10
93.078732
 20
164.189597
 30
0.0
 10
93.293030
 20
164.507430
 30
0.0
 10
93.610864
 20
164.721726
 30
0.0
 10
94.000073
 20
164.800320
 30
0.0
 10
94.389282
 20
164.721726
 30
0.0
 10
94.707116
 20
164.507430
 30
0.0
 10
94.921414
 20
164.189597
 30
0.0
 10
95.000013
 20
163.800390
 30
0.0
 10
94.921417
 20
163.411177
 30
0.0
 10
94.707120
 20
163.093341
 30
0.0
 10
94.389284
 20
162.879045
 30
0.0
 10
94.000073
 20
162.800450
 30
0.0
 10
93.610862
 20
162.879045
 30
0.0
 10
93.293026
 20
163.093341
 30
0.0
 10
93.078729
 20
163.411177
 30
0.0
 10
93.000133
 20
163.800390
 30
0.0
  0
LWPOLYLINE
  5
114
100
AcDbEntity
  8
0
 62
2
100
AcDbPolyline
 90
17
 70
1
 10
93.000133
 20
210.499868
 30
0.0
 10
93.078579
 20
210.889246
 30
0.0
 10
93.292842
 20
211.207251
 30
0.0
 10
93.610736
 20
211.421679
 30
0.0
 10
94.000073
 20
211.500328
 30
0.0
 10
94.389410
 20
211.421679
 30
0.0
 10
94.707304
 20
211.207251
 30
0.0
 10
94.921567
 20
210.889246
 30
0.0
 10
95.000013
 20
210.499868
 30
0.0
 10
94.921417
 20
210.110657
 30
0.0
 10
94.707120
 20
209.792821
 30
0.0
 10
94.389284
 20
209.578524
 30
0.0
 10
94.000073
 20
209.499928
 30
0.0
 10
93.610862
 20
209.578524
 30
0.0
 10
93.293026
 20
209.792821
 30
0.0
 10
93.078729
 20
210.110657
 30
0.0
 10
93.000133
 20
210.499868
 30
0.0
  0
LWPOLYLINE
  5
115
100
AcDbEntity
  8
0
 62
2
100
AcDbPolyline
 90
17
 70
1
 10
105.749740
 20
169.600030
 30
0.0
 10
105.847962
 20
170.086613
 30
0.0
 10
106.115858
 20
170.483962
 30
0.0
 10
106.513207
 20
170.751858
 30
0.0
 10
106.999790
 20
170.850080
 30
0.0
 10
107.486379
 20
170.751860
 30
0.0
 10
107.883731
 20
170.483966
 30
0.0
 10
108.151628
 20
170.086617
 30
0.0
 10
108.249850
 20
169.600030
 30
0.0
 10
108.151628
 20
169.113443
 30
0.0
 10
107.883731
 20
168.716094
 30
0.0
 10
107.486379
 20
168.448200
 30
0.0
 10
106.999790
 20
168.349980
 30
0.0
 10
106.513207
 20
168.448202
 30
0.0
 10
106.115858
 20
168.716097
 30
0.0
 10
105.847962
 20
169.113447
 30
0.0
 10
105.749740
 20
169.600030
 30
0.0
  0
LWPOLYLINE
  5
116
100
AcDbEntity
  8
0
 62
2
100
AcDbPolyline
 90
17
 70
1
 10
105.749740
 20
204.399978
 30
0.0
 10
105.847960
 20
204.886566
 30
0.0
 10
106.115854
 20
205.283918
 30
0.0
 10
106.513203
 20
205.551815
 30
0.0
 10
106.999790
 20
205.650038
 30
0.0
 10
107.486379
 20
205.551818
 30
0.0
 10
107.883731
 20
205.283921
 30
0.0
 10
108.151628
 20
204.886568
 30
0.0
 10
108.249850
 20
204.399978
 30
0.0
 10
108.151478
 20
203.913558
 30
0.0
 10
107.883548
 20
203.516377
 30
0.0
 10
107.486253
 20
203.248614
 30
0.0
 10
106.999790
 20
203.150448
 30
0.0
 10
106.513332
 20
203.248617
 30
0.0
 10
106.116041
 20
203.516380
 30
0.0
 10
105.848112
 20
203.913560
 30
0.0
 10
105.749740
 20
204.399978
 30
0.0
  0
LWPOLYLINE
  5
117
100
AcDbEntity
  8
0
 62
2
100
AcDbPolyline
 90
4
 70
1
 10
112.999940
 20
162.001010
 30
0.0
 10
112.999940
 20
163.999340
 30
0.0
 10
122.999850
 20
163.999340
 30
0.0
 10
122.999850
 20
162.001010
 30
0.0
  0
LWPOLYLINE
  5
118
100
AcDbEntity
  8
0
 62
2
100
AcDbPolyline
 90
4
 70
1
 10
112.999940
 20
210.001188
 30
0.0
 10
112.999940
 20
211.998998
 30
0.0
 10
122.999850
 20
211.998998
 30
0.0
 10
122.999850
 20
210.001188
 30
0.0
  0
LWPOLYLINE
  5
119
100
AcDbEntity
  8
0
 62
2
100
AcDbPolyline
 90
4
 70
1
 10
132.999760
 20
162.001010
 30
0.0
 10
132.999760
 20
163.999340
 30
0.0
 10
142.999660
 20
163.999340
 30
0.0
 10
142.999660
 20
162.001010
 30
0.0
  0
LWPOLYLINE
  5
11a
100
AcDbEntity
  8
0
 62
2
100
AcDbPolyline
 90
4
 70
1
 10
132.999760
 20
210.001188
 30
0.0
 10
132.999760
 20
211.998998
 30
0.0
 10
142.999660
 20
211.998998
 30
0.0
 10
142.999660
 20
210.001188
 30
0.0
  0
LWPOLYLINE
  5
11b
100
AcDbEntity
  8
0
 62
2
100
AcDbPolyline
 90
4
 70
1
 10
153.000090
 20
162.001010
 30
0.0
 10
153.000090
 20
163.999340
 30
0.0
 10
162.999990
 20
163.999340
 30
0.0
 10
162.999990
 20
162.001010
 30
0.0
  0
LWPOLYLINE
  5
11c
100
AcDbEntity
  8
0
 62
2
100
AcDbPolyline
 90
4
 70
1
 10
153.000090
 20
210.001188
 30
0.0
 10
153.000090
 20
211.998998
 30
0.0
 10
162.999990
 20
211.998998
 30
0.0
 10
162.999990
 20
210.001188
 30
0.0
  0
LWPOLYLINE
  5
11d
100
AcDbEntity
  8
0
 62
2
100
AcDbPolyline
 90
4
 70
1
 10
172.999900
 20
162.001010
 30
0.0
 10
172.999900
 20
163.999340
 30
0.0
 10
182.999800
 20
163.999340
 30
0.0
 10
182.999800
 20
162.001010
 30
0.0
  0
LWPOLYLINE
  5
11e
100
AcDbEntity
  8
0
 62
2
100
AcDbPolyline
 90
4
 70
1
 10
172.999900
 20
210.001188
 30
0.0
 10
172.999900
 20
211.998998
 30
0.0
 10
182.999800
 20
211.998998
 30
0.0
 10
182.999800
 20
210.001188
 30
0.0
  0
LWPOLYLINE
  5
11f
100
AcDbEntity
  8
0
 62
2
100
AcDbPolyline
 90
17
 70
1
 10
183.950130
 20
187.000000
 30
0.0
 10
184.048299
 20
187.486465
 30
0.0
 10
184.316064
 20
187.883761
 30
0.0
 10
184.713247
 20
188.151692
 30
0.0
 10
185.199670
 20
188.250060
 30
0.0
 10
185.686257
 20
188.151838
 30
0.0
 10
186.083606
 20
187.883941
 30
0.0
 10
186.351500
 20
187.486589
 30
0.0
 10
186.449720
 20
187.000000
 30
0.0
 10
186.351498
 20
186.513417
 30
0.0
 10
186.083602
 20
186.116067
 30
0.0
 10
185.686253
 20
185.848172
 30
0.0
 10
185.199670
 20
185.749950
 30
0.0
 10
184.713247
 20
185.848316
 30
0.0
 10
184.316064
 20
186.116244
 30
0.0
 10
184.048299
 20
186.513537
 30
0.0
 10
183.950130
 20
187.000000
 30
0.0
  0
LWPOLYLINE
  5
120
100
AcDbEntity
  8
0
 62
2
100
AcDbPolyline
 90
4
 70
1
 10
190.999830
 20
165.000310
 30
0.0
 10
190.999830
 20
172.000400
 30
0.0
 10
192.999710
 20
172.000400
 30
0.0
 10
192.999710
 20
165.000310
 30
0.0
  0
LWPOLYLINE
  5
121
100
AcDbEntity
  8
0
 62
2
100
AcDbPolyline
 90
4
 70
1
 10
190.999830
 20
182.000310
 30
0.0
 10
190.999830
 20
192.000220
 30
0.0
 10
192.999710
 20
192.000220
 30
0.0
 10
192.999710
 20
182.000310
 30
0.0
  0
LWPOLYLINE
  5
122
100
AcDbEntity
  8
0
 62
2
100
AcDbPolyline
 90
4
 70
1
 10
190.999830
 20
202.000128
 30
0.0
 10
190.999830
 20
209.000218
 30
0.0
 10
192.999710
 20
209.000218
 30
0.0
 10
192.999710
 20
202.000128
 30
0.0
  0
LWPOLYLINE
  5
123
100
AcDbEntity
  8
0
 62
2
100
AcDbPolyline
 90
31
 70
1
 10
195.000110
 20
187.000000
 30
0.0
 10
195.081322
 20
187.806149
 30
0.0
 10
195.314346
 20
188.557009
 30
0.0
 10
196.171498
 20
189.828519
 30
0.0
 10
197.442893
 20
190.685839
 30
0.0
 10
198.193722
 20
190.918962
 30
0.0
 10
198.999860
 20
191.000280
 30
0.0
 10
200.040538
 20
190.859685
 30
0.0
 10
200.993851
 20
190.461703
 30
0.0
 10
201.813554
 20
189.833039
 30
0.0
 10
202.453400
 20
189.000400
 30
0.0
 10
204.000070
 20
189.000400
 30
0.0
 10
204.778619
 20
188.843154
 30
0.0
 10
205.414348
 20
188.414429
 30
0.0
 10
205.842907
 20
187.778590
 30
0.0
 10
205.999950
 20
187.000000
 30
0.0
 10
205.842757
 20
186.221576
 30
0.0
 10
205.414164
 20
185.585906
 30
0.0
 10
204.778494
 20
185.157313
 30
0.0
 10
204.000070
 20
185.000120
 30
0.0
 10
202.453400
 20
185.000120
 30
0.0
 10
201.813554
 20
184.167450
 30
0.0
 10
200.993851
 20
183.538729
 30
0.0
 10
200.040538
 20
183.140735
 30
0.0
 10
198.999860
 20
183.000250
 30
0.0
 10
198.193794
 20
183.081553
 30
0.0
 10
197.443022
 20
183.314638
 30
0.0
 10
196.171685
 20
184.171825
 30
0.0
 10
195.314498
 20
185.443162
 30
0.0
 10
195.081413
 20
186.193934
 30
0.0
 10
195.000110
 20
187.000000
 30
0.0
  0
LWPOLYLINE
  5
124
100
AcDbEntity
  8
0
 62
2
100
AcDbPolyline
 90
85
 70
1
 10
208.000050
 20
257.000073
 30
0.0
 10
207.837524
 20
258.612361
 30
0.0
 10
207.371377
 20
260.114051
 30
0.0
 10
206.633781
 20
261.472973
 30
0.0
 10
205.656905
 20
262.656957
 30
0.0
 10
204.472921
 20
263.633833
 30
0.0
 10
203.113998
 20
264.371429
 30
0.0
 10
201.612307
 20
264.837576
 30
0.0
 10
200.000020
 20
265.000103
 30
0.0
 10
195.000000
 20
268.000001
 30
0.0
 10
195.000320
 20
286.999790
 30
0.0
 10
194.898767
 20
288.007525
 30
0.0
 10
194.607432
 20
288.946133
 30
0.0
 10
194.146424
 20
289.795506
 30
0.0
 10
193.535852
 20
290.535533
 30
0.0
 10
192.795826
 20
291.146105
 30
0.0
 10
191.946454
 20
291.607113
 30
0.0
 10
191.007846
 20
291.898448
 30
0.0
 10
190.000110
 20
292.000000
 30
0.0
 10
162.000270
 20
292.000000
 30
0.0
 10
107.000000
 20
292.000000
 30
0.0
 10
104.650280
 20
288.240020
 30
0.0
 10
103.196873
 20
286.464719
 30
0.0
 10
101.373426
 20
285.130833
 30
0.0
 10
99.275862
 20
284.291529
 30
0.0
 10
97.000106
 20
283.999970
 30
0.0
 10
20.000145
 20
283.999970
 30
0.0
 10
18.992408
 20
283.898420
 30
0.0
 10
18.053798
 20
283.607086
 30
0.0
 10
17.204424
 20
283.146078
 30
0.0
 10
16.464396
 20
282.535506
 30
0.0
 10
15.853822
 20
281.795479
 30
0.0
 10
15.392813
 20
280.946106
 30
0.0
 10
15.101477
 20
280.007496
 30
0.0
 10
14.999925
 20
278.999760
 30
0.0
 10
15.000000
 20
268.000001
 30
0.0
 10
10.000234
 20
265.000103
 30
0.0
 10
7.912843
 20
264.723137
 30
0.0
 10
6.000154
 20
263.928199
 30
0.0
 10
4.355441
 20
262.669143
 30
0.0
 10
3.071975
 20
260.999823
 30
0.0
 10
2.268121
 20
259.053664
 30
0.0
 10
2.000170
 20
256.999808
 30
0.0
 10
2.268121
 20
254.945952
 30
0.0
 10
3.071975
 20
252.999793
 30
0.0
 10
4.355513
 20
251.330627
 30
0.0
 10
6.000246
 20
250.071718
 30
0.0
 10
7.912908
 20
249.276909
 30
0.0
 10
10.000234
 20
249.000043
 30
0.0
 10
15.000000
 20
246.000001
 30
0.0
 10
14.999925
 20
234.999863
 30
0.0
 10
15.101477
 20
233.992127
 30
0.0
 10
15.392813
 20
233.053517
 30
0.0
 10
15.853822
 20
232.204144
 30
0.0
 10
16.464396
 20
231.464117
 30
0.0
 10
17.204424
 20
230.853545
 30
0.0
 10
18.053798
 20
230.392537
 30
0.0
 10
18.992408
 20
230.101203
 30
0.0
 10
20.000145
 20
229.999653
 30
0.0
 10
97.000106
 20
229.999653
 30
0.0
 10
99.275803
 20
229.708193
 30
0.0
 10
101.373343
 20
228.869013
 30
0.0
 10
103.196808
 20
227.535268
 30
0.0
 10
104.650280
 20
225.760113
 30
0.0
 10
107.000000
 20
221.999623
 30
0.0
 10
149.999960
 20
221.999623
 30
0.0
 10
190.000110
 20
221.999623
 30
0.0
 10
191.007846
 20
222.101175
 30
0.0
 10
191.946454
 20
222.392510
 30
0.0
 10
192.795826
 20
222.853518
 30
0.0
 10
193.535852
 20
223.464090
 30
0.0
 10
194.146424
 20
224.204117
 30
0.0
 10
194.607432
 20
225.053490
 30
0.0
 10
194.898767
 20
225.992098
 30
0.0
 10
195.000320
 20
226.999833
 30
0.0
 10
195.000000
 20
246.000001
 30
0.0
 10
200.000040
 20
249.000043
 30
0.0
 10
201.612327
 20
249.162575
 30
0.0
 10
203.114018
 20
249.628724
 30
0.0
 10
204.472941
 20
250.366321
 30
0.0
 10
205.656925
 20
251.343195
 30
0.0
 10
206.633801
 20
252.527177
 30
0.0
 10
207.371397
 20
253.886098
 30
0.0
 10
207.837544
 20
255.387786
 30
0.0
 10
208.000070
 20
257.000073
 30
0.0
  0
LWPOLYLINE
  5
125
100
AcDbEntity
  8
0
 62
2
100
AcDbPolyline
 90
32
 70
1
 10
206.000170
 20
257.000073
 30
0.0
 10
205.842977
 20
256.221650
 30
0.0
 10
205.414384
 20
255.585979
 30
0.0
 10
204.778714
 20
255.157385
 30
0.0
 10
204.000290
 20
255.000193
 30
0.0
 10
202.454130
 20
255.000193
 30
0.0
 10
201.814193
 20
254.167427
 30
0.0
 10
200.994364
 20
253.538668
 30
0.0
 10
200.040905
 20
253.140701
 30
0.0
 10
199.000080
 20
253.000313
 30
0.0
 10
198.194010
 20
253.081614
 30
0.0
 10
197.443235
 20
253.314698
 30
0.0
 10
196.171893
 20
254.171886
 30
0.0
 10
195.314704
 20
255.443228
 30
0.0
 10
195.081621
 20
256.194003
 30
0.0
 10
195.000320
 20
257.000073
 30
0.0
 10
195.081623
 20
257.806141
 30
0.0
 10
195.314708
 20
258.556915
 30
0.0
 10
196.171896
 20
259.828254
 30
0.0
 10
197.443236
 20
260.685439
 30
0.0
 10
198.194011
 20
260.918522
 30
0.0
 10
199.000080
 20
260.999823
 30
0.0
 10
200.040698
 20
260.859449
 30
0.0
 10
200.993985
 20
260.461579
 30
0.0
 10
201.813705
 20
259.832991
 30
0.0
 10
202.453620
 20
259.000463
 30
0.0
 10
204.000290
 20
259.000463
 30
0.0
 10
204.000290
 20
258.999953
 30
0.0
 10
204.778714
 20
258.842761
 30
0.0
 10
205.414384
 20
258.414167
 30
0.0
 10
205.842977
 20
257.778496
 30
0.0
 10
206.000170
 20
257.000073
 30
0.0
  0
LWPOLYLINE
  5
126
100
AcDbEntity
  8
0
 62
2
100
AcDbPolyline
 90
4
 70
1
 10
192.999930
 20
282.000090
 30
0.0
 10
192.999930
 20
271.999676
 30
0.0
 10
191.000050
 20
271.999676
 30
0.0
 10
191.000050
 20
282.000090
 30
0.0
  0
LWPOLYLINE
  5
127
100
AcDbEntity
  8
0
 62
2
100
AcDbPolyline
 90
4
 70
1
 10
192.999930
 20
261.999763
 30
0.0
 10
192.999930
 20
251.999863
 30
0.0
 10
191.000050
 20
251.999863
 30
0.0
 10
191.000050
 20
261.999763
 30
0.0
  0
LWPOLYLINE
  5
128
100
AcDbEntity
  8
0
 62
2
100
AcDbPolyline
 90
4
 70
1
 10
192.999930
 20
241.999953
 30
0.0
 10
192.999930
 20
232.000043
 30
0.0
 10
191.000050
 20
232.000043
 30
0.0
 10
191.000050
 20
241.999953
 30
0.0
  0
LWPOLYLINE
  5
129
100
AcDbEntity
  8
0
 62
2
100
AcDbPolyline
 90
4
 70
1
 10
187.000300
 20
289.999600
 30
0.0
 10
187.000300
 20
287.999730
 30
0.0
 10
177.000390
 20
287.999730
 30
0.0
 10
177.000390
 20
289.999600
 30
0.0
  0
LWPOLYLINE
  5
12a
100
AcDbEntity
  8
0
 62
2
100
AcDbPolyline
 90
4
 70
1
 10
187.000300
 20
225.999893
 30
0.0
 10
187.000300
 20
224.000013
 30
0.0
 10
177.000390
 20
224.000013
 30
0.0
 10
177.000390
 20
225.999893
 30
0.0
  0
LWPOLYLINE
  5
12b
100
AcDbEntity
  8
0
 62
2
100
AcDbPolyline
 90
4
 70
1
 10
166.999970
 20
289.999600
 30
0.0
 10
166.999970
 20
287.999730
 30
0.0
 10
157.000060
 20
287.999730
 30
0.0
 10
157.000060
 20
289.999600
 30
0.0
  0
LWPOLYLINE
  5
12c
100
AcDbEntity
  8
0
 62
2
100
AcDbPolyline
 90
4
 70
1
 10
166.999970
 20
225.999893
 30
0.0
 10
166.999970
 20
224.000013
 30
0.0
 10
157.000060
 20
224.000013
 30
0.0
 10
157.000060
 20
225.999893
 30
0.0
  0
LWPOLYLINE
  5
12d
100
AcDbEntity
  8
0
 62
2
100
AcDbPolyline
 90
17
 70
1
 10
157.180410
 20
280.054990
 30
0.0
 10
157.082188
 20
279.568403
 30
0.0
 10
156.814291
 20
279.171053
 30
0.0
 10
156.416939
 20
278.903159
 30
0.0
 10
155.930350
 20
278.804940
 30
0.0
 10
155.443767
 20
278.903162
 30
0.0
 10
155.046417
 20
279.171056
 30
0.0
 10
154.778522
 20
279.568405
 30
0.0
 10
154.680300
 20
280.054990
 30
0.0
 10
154.778522
 20
280.541575
 30
0.0
 10
155.046418
 20
280.938924
 30
0.0
 10
155.443767
 20
281.206818
 30
0.0
 10
155.930350
 20
281.305040
 30
0.0
 10
156.416939
 20
281.206821
 30
0.0
 10
156.814291
 20
280.938927
 30
0.0
 10
157.082188
 20
280.541577
 30
0.0
 10
157.180410
 20
280.054990
 30
0.0
  0
LWPOLYLINE
  5
12e
100
AcDbEntity
  8
0
 62
2
100
AcDbPolyline
 90
17
 70
1
 10
157.179890
 20
233.944633
 30
0.0
 10
157.081668
 20
233.458043
 30
0.0
 10
156.813771
 20
233.060689
 30
0.0
 10
156.416419
 20
232.792793
 30
0.0
 10
155.929830
 20
232.694573
 30
0.0
 10
155.443243
 20
232.792796
 30
0.0
 10
155.045894
 20
233.060693
 30
0.0
 10
154.778000
 20
233.458045
 30
0.0
 10
154.679780
 20
233.944633
 30
0.0
 10
154.778002
 20
234.431218
 30
0.0
 10
155.045898
 20
234.828567
 30
0.0
 10
155.443247
 20
235.096461
 30
0.0
 10
155.929830
 20
235.194683
 30
0.0
 10
156.416419
 20
235.096464
 30
0.0
 10
156.813771
 20
234.828570
 30
0.0
 10
157.081668
 20
234.431220
 30
0.0
 10
157.179890
 20
233.944633
 30
0.0
  0
LWPOLYLINE
  5
12f
100
AcDbEntity
  8
0
 62
2
100
AcDbPolyline
 90
4
 70
1
 10
147.000150
 20
289.999600
 30
0.0
 10
147.000150
 20
287.999730
 30
0.0
 10
137.000240
 20
287.999730
 30
0.0
 10
137.000240
 20
289.999600
 30
0.0
  0
LWPOLYLINE
  5
130
100
AcDbEntity
  8
0
 62
2
100
AcDbPolyline
 90
4
 70
1
 10
147.000150
 20
225.999893
 30
0.0
 10
147.000150
 20
224.000013
 30
0.0
 10
137.000240
 20
224.000013
 30
0.0
 10
137.000240
 20
225.999893
 30
0.0
  0
LWPOLYLINE
  5
131
100
AcDbEntity
  8
0
 62
2
100
AcDbPolyline
 90
17
 70
1
 10
141.170010
 20
280.054990
 30
0.0
 10
141.071788
 20
279.568405
 30
0.0
 10
140.803893
 20
279.171056
 30
0.0
 10
140.406543
 20
278.903162
 30
0.0
 10
139.919960
 20
278.804940
 30
0.0
 10
139.433377
 20
278.903162
 30
0.0
 10
139.036027
 20
279.171056
 30
0.0
 10
138.768132
 20
279.568405
 30
0.0
 10
138.669910
 20
280.054990
 30
0.0
 10
138.768132
 20
280.541575
 30
0.0
 10
139.036027
 20
280.938924
 30
0.0
 10
139.433377
 20
281.206818
 30
0.0
 10
139.919960
 20
281.305040
 30
0.0
 10
140.406543
 20
281.206818
 30
0.0
 10
140.803893
 20
280.938924
 30
0.0
 10
141.071788
 20
280.541575
 30
0.0
 10
141.170010
 20
280.054990
 30
0.0
  0
LWPOLYLINE
  5
132
100
AcDbEntity
  8
0
 62
2
100
AcDbPolyline
 90
17
 70
1
 10
141.170010
 20
233.944633
 30
0.0
 10
141.071790
 20
233.458045
 30
0.0
 10
140.803896
 20
233.060693
 30
0.0
 10
140.406547
 20
232.792796
 30
0.0
 10
139.919960
 20
232.694573
 30
0.0
 10
139.433373
 20
232.792796
 30
0.0
 10
139.036024
 20
233.060693
 30
0.0
 10
138.768130
 20
233.458045
 30
0.0
 10
138.669910
 20
233.944633
 30
0.0
 10
138.768132
 20
234.431218
 30
0.0
 10
139.036027
 20
234.828567
 30
0.0
 10
139.433377
 20
235.096461
 30
0.0
 10
139.919960
 20
235.194683
 30
0.0
 10
140.406543
 20
235.096461
 30
0.0
 10
140.803893
 20
234.828567
 30
0.0
 10
141.071788
 20
234.431218
 30
0.0
 10
141.170010
 20
233.944633
 30
0.0
  0
LWPOLYLINE
  5
133
100
AcDbEntity
  8
0
 62
2
100
AcDbPolyline
 90
17
 70
1
 10
128.000270
 20
280.200200
 30
0.0
 10
127.921822
 20
279.810825
 30
0.0
 10
127.707559
 20
279.492823
 30
0.0
 10
127.389666
 20
279.278398
 30
0.0
 10
127.000330
 20
279.199750
 30
0.0
 10
126.610994
 20
279.278398
 30
0.0
 10
126.293101
 20
279.492823
 30
0.0
 10
126.078838
 20
279.810825
 30
0.0
 10
126.000390
 20
280.200200
 30
0.0
 10
126.078985
 20
280.589411
 30
0.0
 10
126.293281
 20
280.907247
 30
0.0
 10
126.611117
 20
281.121544
 30
0.0
 10
127.000330
 20
281.200140
 30
0.0
 10
127.389543
 20
281.121544
 30
0.0
 10
127.707379
 20
280.907247
 30
0.0
 10
127.921675
 20
280.589411
 30
0.0
 10
128.000270
 20
280.200200
 30
0.0
  0
LWPOLYLINE
  5
134
100
AcDbEntity
  8
0
 62
2
100
AcDbPolyline
 90
17
 70
1
 10
128.000270
 20
233.499693
 30
0.0
 10
127.921675
 20
233.110482
 30
0.0
 10
127.707379
 20
232.792646
 30
0.0
 10
127.389543
 20
232.578349
 30
0.0
 10
127.000330
 20
232.499753
 30
0.0
 10
126.611117
 20
232.578349
 30
0.0
 10
126.293281
 20
232.792646
 30
0.0
 10
126.078985
 20
233.110482
 30
0.0
 10
126.000390
 20
233.499693
 30
0.0
 10
126.078838
 20
233.889071
 30
0.0
 10
126.293101
 20
234.207076
 30
0.0
 10
126.610994
 20
234.421504
 30
0.0
 10
127.000330
 20
234.500153
 30
0.0
 10
127.389666
 20
234.421504
 30
0.0
 10
127.707559
 20
234.207076
 30
0.0
 10
127.921822
 20
233.889071
 30
0.0
 10
128.000270
 20
233.499693
 30
0.0
  0
LWPOLYLINE
  5
135
100
AcDbEntity
  8
0
 62
2
100
AcDbPolyline
 90
4
 70
1
 10
127.000330
 20
289.999600
 30
0.0
 10
127.000330
 20
287.999730
 30
0.0
 10
116.999910
 20
287.999730
 30
0.0
 10
116.999910
 20
289.999600
 30
0.0
  0
LWPOLYLINE
  5
136
100
AcDbEntity
  8
0
 62
2
100
AcDbPolyline
 90
4
 70
1
 10
127.000330
 20
225.999893
 30
0.0
 10
127.000330
 20
224.000013
 30
0.0
 10
116.999910
 20
224.000013
 30
0.0
 10
116.999910
 20
225.999893
 30
0.0
  0
LWPOLYLINE
  5
137
100
AcDbEntity
  8
0
 62
2
100
AcDbPolyline
 90
17
 70
1
 10
116.999910
 20
280.199680
 30
0.0
 10
116.921310
 20
279.810472
 30
0.0
 10
116.707011
 20
279.492640
 30
0.0
 10
116.389177
 20
279.278345
 30
0.0
 10
115.999970
 20
279.199750
 30
0.0
 10
115.610763
 20
279.278345
 30
0.0
 10
115.292929
 20
279.492640
 30
0.0
 10
115.078630
 20
279.810472
 30
0.0
 10
115.000030
 20
280.199680
 30
0.0
 10
115.078625
 20
280.588891
 30
0.0
 10
115.292921
 20
280.906727
 30
0.0
 10
115.610757
 20
281.121024
 30
0.0
 10
115.999970
 20
281.199620
 30
0.0
 10
116.389183
 20
281.121024
 30
0.0
 10
116.707019
 20
280.906727
 30
0.0
 10
116.921315
 20
280.588891
 30
0.0
 10
116.999910
 20
280.199680
 30
0.0
  0
LWPOLYLINE
  5
138
100
AcDbEntity
  8
0
 62
2
100
AcDbPolyline
 90
17
 70
1
 10
116.999910
 20
233.500213
 30
0.0
 10
116.921462
 20
233.110835
 30
0.0
 10
116.707199
 20
232.792830
 30
0.0
 10
116.389306
 20
232.578402
 30
0.0
 10
115.999970
 20
232.499753
 30
0.0
 10
115.610634
 20
232.578402
 30
0.0
 10
115.292741
 20
232.792830
 30
0.0
 10
115.078478
 20
233.110835
 30
0.0
 10
115.000030
 20
233.500213
 30
0.0
 10
115.078625
 20
233.889424
 30
0.0
 10
115.292921
 20
234.207260
 30
0.0
 10
115.610757
 20
234.421557
 30
0.0
 10
115.999970
 20
234.500153
 30
0.0
 10
116.389183
 20
234.421557
 30
0.0
 10
116.707019
 20
234.207260
 30
0.0
 10
116.921315
 20
233.889424
 30
0.0
 10
116.999910
 20
233.500213
 30
0.0
  0
LWPOLYLINE
  5
139
100
AcDbEntity
  8
0
 62
2
100
AcDbPolyline
 90
17
 70
1
 10
104.250300
 20
274.400053
 30
0.0
 10
104.152078
 20
273.913468
 30
0.0
 10
103.884182
 20
273.516119
 30
0.0
 10
103.486833
 20
273.248225
 30
0.0
 10
103.000250
 20
273.150003
 30
0.0
 10
102.513661
 20
273.248222
 30
0.0
 10
102.116309
 20
273.516116
 30
0.0
 10
101.848412
 20
273.913466
 30
0.0
 10
101.750190
 20
274.400053
 30
0.0
 10
101.848412
 20
274.886640
 30
0.0
 10
102.116309
 20
275.283990
 30
0.0
 10
102.513661
 20
275.551884
 30
0.0
 10
103.000250
 20
275.650103
 30
0.0
 10
103.486833
 20
275.551881
 30
0.0
 10
103.884182
 20
275.283987
 30
0.0
 10
104.152078
 20
274.886638
 30
0.0
 10
104.250300
 20
274.400053
 30
0.0
  0
LWPOLYLINE
  5
13a
100
AcDbEntity
  8
0
 62
2
100
AcDbPolyline
 90
17
 70
1
 10
104.250300
 20
239.600103
 30
0.0
 10
104.152080
 20
239.113515
 30
0.0
 10
103.884186
 20
238.716163
 30
0.0
 10
103.486837
 20
238.448266
 30
0.0
 10
103.000250
 20
238.350043
 30
0.0
 10
102.513661
 20
238.448263
 30
0.0
 10
102.116309
 20
238.716160
 30
0.0
 10
101.848412
 20
239.113513
 30
0.0
 10
101.750190
 20
239.600103
 30
0.0
 10
101.848562
 20
240.086523
 30
0.0
 10
102.116492
 20
240.483704
 30
0.0
 10
102.513787
 20
240.751467
 30
0.0
 10
103.000250
 20
240.849633
 30
0.0
 10
103.486708
 20
240.751464
 30
0.0
 10
103.883999
 20
240.483700
 30
0.0
 10
104.151928
 20
240.086521
 30
0.0
 10
104.250300
 20
239.600103
 30
0.0
  0
LWPOLYLINE
  5
13b
100
AcDbEntity
  8
0
 62
2
100
AcDbPolyline
 90
4
 70
1
 10
97.000106
 20
281.999060
 30
0.0
 10
97.000106
 20
280.000730
 30
0.0
 10
87.000197
 20
280.000730
 30
0.0
 10
87.000197
 20
281.999060
 30
0.0
  0
LWPOLYLINE
  5
13c
100
AcDbEntity
  8
0
 62
2
100
AcDbPolyline
 90
4
 70
1
 10
97.000106
 20
233.998893
 30
0.0
 10
97.000106
 20
232.001083
 30
0.0
 10
87.000197
 20
232.001083
 30
0.0
 10
87.000197
 20
233.998893
 30
0.0
  0
LWPOLYLINE
  5
13d
100
AcDbEntity
  8
0
 62
2
100
AcDbPolyline
 90
4
 70
1
 10
77.000287
 20
281.999060
 30
0.0
 10
77.000287
 20
280.000730
 30
0.0
 10
67.000387
 20
280.000730
 30
0.0
 10
67.000387
 20
281.999060
 30
0.0
  0
LWPOLYLINE
  5
13e
100
AcDbEntity
  8
0
 62
2
100
AcDbPolyline
 90
4
 70
1
 10
77.000287
 20
233.998893
 30
0.0
 10
77.000287
 20
232.001083
 30
0.0
 10
67.000387
 20
232.001083
 30
0.0
 10
67.000387
 20
233.998893
 30
0.0
  0
LWPOLYLINE
  5
13f
100
AcDbEntity
  8
0
 62
2
100
AcDbPolyline
 90
4
 70
1
 10
56.999957
 20
281.999060
 30
0.0
 10
56.999957
 20
280.000730
 30
0.0
 10
47.000047
 20
280.000730
 30
0.0
 10
47.000047
 20
281.999060
 30
0.0
  0
LWPOLYLINE
  5
140
100
AcDbEntity
  8
0
 62
2
100
AcDbPolyline
 90
4
 70
1
 10
56.999957
 20
233.998893
 30
0.0
 10
56.999957
 20
232.001083
 30
0.0
 10
47.000047
 20
232.001083
 30
0.0
 10
47.000047
 20
233.998893
 30
0.0
  0
LWPOLYLINE
  5
141
100
AcDbEntity
  8
0
 62
2
100
AcDbPolyline
 90
4
 70
1
 10
37.000135
 20
281.999060
 30
0.0
 10
37.000135
 20
280.000730
 30
0.0
 10
27.000235
 20
280.000730
 30
0.0
 10
27.000235
 20
281.999060
 30
0.0
  0
LWPOLYLINE
  5
142
100
AcDbEntity
  8
0
 62
2
100
AcDbPolyline
 90
4
 70
1
 10
37.000135
 20
233.998893
 30
0.0
 10
37.000135
 20
232.001083
 30
0.0
 10
27.000235
 20
232.001083
 30
0.0
 10
27.000235
 20
233.998893
 30
0.0
  0
LWPOLYLINE
  5
143
100
AcDbEntity
  8
0
 62
2
100
AcDbPolyline
 90
17
 70
1
 10
26.049905
 20
257.000073
 30
0.0
 10
25.951738
 20
256.513609
 30
0.0
 10
25.683972
 20
256.116313
 30
0.0
 10
25.286788
 20
255.848383
 30
0.0
 10
24.800365
 20
255.750013
 30
0.0
 10
24.313778
 20
255.848236
 30
0.0
 10
23.916428
 20
256.116133
 30
0.0
 10
23.648534
 20
256.513485
 30
0.0
 10
23.550315
 20
257.000073
 30
0.0
 10
23.648537
 20
257.486658
 30
0.0
 10
23.916431
 20
257.884007
 30
0.0
 10
24.313780
 20
258.151901
 30
0.0
 10
24.800365
 20
258.250123
 30
0.0
 10
25.286786
 20
258.151754
 30
0.0
 10
25.683969
 20
257.883826
 30
0.0
 10
25.951735
 20
257.486534
 30
0.0
 10
26.049905
 20
257.000073
 30
0.0
  0
LWPOLYLINE
  5
144
100
AcDbEntity
  8
0
 62
2
100
AcDbPolyline
 90
4
 70
1
 10
19.000205
 20
278.999760
 30
0.0
 10
19.000205
 20
271.999676
 30
0.0
 10
17.000325
 20
271.999676
 30
0.0
 10
17.000325
 20
278.999760
 30
0.0
  0
LWPOLYLINE
  5
145
100
AcDbEntity
  8
0
 62
2
100
AcDbPolyline
 90
4
 70
1
 10
19.000205
 20
261.999763
 30
0.0
 10
19.000205
 20
251.999863
 30
0.0
 10
17.000325
 20
251.999863
 30
0.0
 10
17.000325
 20
261.999763
 30
0.0
  0
LWPOLYLINE
  5
146
100
AcDbEntity
  8
0
 62
2
100
AcDbPolyline
 90
4
 70
1
 10
19.000205
 20
241.999953
 30
0.0
 10
19.000205
 20
234.999863
 30
0.0
 10
17.000325
 20
234.999863
 30
0.0
 10
17.000325
 20
241.999953
 30
0.0
  0
LWPOLYLINE
  5
147
100
AcDbEntity
  8
0
 62
2
100
AcDbPolyline
 90
31
 70
1
 10
14.999925
 20
257.000073
 30
0.0
 10
14.918715
 20
256.193924
 30
0.0
 10
14.685691
 20
255.443063
 30
0.0
 10
13.828540
 20
254.171553
 30
0.0
 10
12.557143
 20
253.314233
 30
0.0
 10
11.806314
 20
253.081110
 30
0.0
 10
11.000175
 20
252.999793
 30
0.0
 10
9.959496
 20
253.140262
 30
0.0
 10
9.006183
 20
253.538259
 30
0.0
 10
8.186481
 20
254.166993
 30
0.0
 10
7.546635
 20
254.999673
 30
0.0
 10
5.999965
 20
254.999673
 30
0.0
 10
5.221417
 20
255.156918
 30
0.0
 10
4.585688
 20
255.585643
 30
0.0
 10
4.157128
 20
256.221483
 30
0.0
 10
4.000085
 20
257.000073
 30
0.0
 10
4.157278
 20
257.778496
 30
0.0
 10
4.585872
 20
258.414167
 30
0.0
 10
5.221543
 20
258.842761
 30
0.0
 10
5.999965
 20
258.999953
 30
0.0
 10
7.546635
 20
258.999953
 30
0.0
 10
8.186483
 20
259.832624
 30
0.0
 10
9.006185
 20
260.461345
 30
0.0
 10
9.959497
 20
260.859338
 30
0.0
 10
11.000175
 20
260.999823
 30
0.0
 10
11.806242
 20
260.918520
 30
0.0
 10
12.557015
 20
260.685437
 30
0.0
 10
13.828352
 20
259.828250
 30
0.0
 10
14.685539
 20
258.556913
 30
0.0
 10
14.918622
 20
257.806140
 30
0.0
 10
14.999925
 20
257.000073
 30
0.0
  0
LWPOLYLINE
  5
148
100
AcDbEntity
  8
0
 62
2
100
AcDbPolyline
 90
28
 70
1
 10
73.999837
 20
30.000010
 30
0.0
 10
74.000041
 20
32.999530
 30
0.0
 10
77.999671
 20
32.999530
 30
0.0
 10
77.999671
 20
58.999490
 30
0.0
 10
74.000041
 20
58.999490
 30
0.0
 10
73.999837
 20
62.000010
 30
0.0
 10
63.999417
 20
62.000010
 30
0.0
 10
63.999621
 20
59.000010
 30
0.0
 10
53.999721
 20
59.000010
 30
0.0
 10
53.999517
 20
62.000010
 30
0.0
 10
43.999617
 20
62.000010
 30
0.0
 10
43.999821
 20
59.000010
 30
0.0
 10
33.999911
 20
59.000010
 30
0.0
 10
33.999707
 20
62.000010
 30
0.0
 10
23.999797
 20
62.000010
 30
0.0
 10
24.000001
 20
59.000010
 30
0.0
 10
19.999671
 20
59.000010
 30
0.0
 10
19.999671
 20
32.999530
 30
0.0
 10
24.000001
 20
32.999530
 30
0.0
 10
23.999797
 20
30.000010
 30
0.0
 10
33.999707
 20
30.000010
 30
0.0
 10
33.999911
 20
32.999530
 30
0.0
 10
43.999821
 20
32.999530
 30
0.0
 10
43.999617
 20
30.000010
 30
0.0
 10
53.999517
 20
30.000010
 30
0.0
 10
53.999721
 20
32.999530
 30
0.0
 10
63.999621
 20
32.999530
 30
0.0
 10
63.999417
 20
30.000010
 30
0.0
  0
LWPOLYLINE
  5
149
100
AcDbEntity
  8
0
 62
2
100
AcDbPolyline
 90
22
 70
1
 10
85.000002
 20
62.000530
 30
0.0
 10
85.000002
 20
62.000010
 30
0.0
 10
85.000002
 20
30.000420
 30
0.0
 10
92.000091
 20
30.000420
 30
0.0
 10
92.000091
 20
32.928400
 30
0.0
 10
102.000000
 20
32.928400
 30
0.0
 10
102.000000
 20
30.000420
 30
0.0
 10
111.999900
 20
30.000420
 30
0.0
 10
111.999900
 20
32.928400
 30
0.0
 10
121.999810
 20
32.928400
 30
0.0
 10
121.999810
 20
30.000420
 30
0.0
 10
128.999900
 20
30.000420
 30
0.0
 10
128.999900
 20
62.000010
 30
0.0
 10
128.999900
 20
62.000530
 30
0.0
 10
121.999810
 20
62.000530
 30
0.0
 10
121.999810
 20
59.000200
 30
0.0
 10
111.999900
 20
59.000200
 30
0.0
 10
111.999900
 20
62.000530
 30
0.0
 10
102.000000
 20
62.000530
 30
0.0
 10
102.000000
 20
59.000200
 30
0.0
 10
92.000091
 20
59.000200
 30
0.0
 10
92.000091
 20
62.000530
 30
0.0
  0
LWPOLYLINE
  5
14a
100
AcDbEntity
  8
0
 62
2
100
AcDbPolyline
 90
36
 70
1
 10
27.000001
 20
97.000010
 30
0.0
 10
27.000001
 20
93.998640
 30
0.0
 10
19.999912
 20
93.998640
 30
0.0
 10
19.999912
 20
67.995580
 30
0.0
 10
27.000001
 20
67.995580
 30
0.0
 10
27.000001
 20
64.999380
 30
0.0
 10
36.999908
 20
64.999380
 30
0.0
 10
36.999908
 20
67.995580
 30
0.0
 10
46.999814
 20
67.995580
 30
0.0
 10
46.999814
 20
64.999380
 30
0.0
 10
56.999721
 20
64.999380
 30
0.0
 10
56.999721
 20
67.995580
 30
0.0
 10
67.000144
 20
67.995580
 30
0.0
 10
67.000144
 20
64.999380
 30
0.0
 10
77.000050
 20
64.998860
 30
0.0
 10
77.000050
 20
67.996610
 30
0.0
 10
86.999957
 20
67.996610
 30
0.0
 10
86.999957
 20
64.998860
 30
0.0
 10
96.999863
 20
64.998340
 30
0.0
 10
96.999863
 20
67.994030
 30
0.0
 10
104.999890
 20
67.999030
 30
0.0
 10
104.999890
 20
93.999000
 30
0.0
 10
96.999863
 20
93.998000
 30
0.0
 10
96.999863
 20
96.999370
 30
0.0
 10
86.999957
 20
96.999370
 30
0.0
 10
86.999957
 20
93.999040
 30
0.0
 10
77.000050
 20
93.999040
 30
0.0
 10
77.000050
 20
96.999890
 30
0.0
 10
67.000144
 20
96.999890
 30
0.0
 10
67.000144
 20
93.999040
 30
0.0
 10
57.000237
 20
93.999040
 30
0.0
 10
57.000237
 20
96.999890
 30
0.0
 10
46.999814
 20
96.999890
 30
0.0
 10
46.999814
 20
93.998520
 30
0.0
 10
36.999908
 20
93.998520
 30
0.0
 10
36.999908
 20
96.999890
 30
0.0
  0
LWPOLYLINE
  5
14b
100
AcDbEntity
  8
0
 62
2
100
AcDbPolyline
 90
4
 70
1
 10
32.259629
 20
90.498600
 30
0.0
 10
43.259991
 20
90.498600
 30
0.0
 10
43.259991
 20
81.498110
 30
0.0
 10
32.259629
 20
81.498110
 30
0.0
  0
LWPOLYLINE
  5
14c
100
AcDbEntity
  8
0
 62
2
100
AcDbPolyline
 90
21
 70
1
 10
87.509486
 20
88.998430
 30
0.0
 10
97.509909
 20
88.998430
 30
0.0
 10
98.289824
 20
88.841761
 30
0.0
 10
98.925345
 20
88.413990
 30
0.0
 10
99.353118
 20
87.778469
 30
0.0
 10
99.509787
 20
86.998550
 30
0.0
 10
99.509787
 20
82.998280
 30
0.0
 10
99.353118
 20
82.218365
 30
0.0
 10
98.925345
 20
81.582844
 30
0.0
 10
98.289824
 20
81.155070
 30
0.0
 10
97.509909
 20
80.998400
 30
0.0
 10
87.509486
 20
80.998400
 30
0.0
 10
86.729571
 20
81.155070
 30
0.0
 10
86.094050
 20
81.582844
 30
0.0
 10
85.666277
 20
82.218365
 30
0.0
 10
85.509608
 20
82.998280
 30
0.0
 10
85.509608
 20
86.998550
 30
0.0
 10
85.666277
 20
87.778469
 30
0.0
 10
86.094050
 20
88.413990
 30
0.0
 10
86.729571
 20
88.841761
 30
0.0
 10
87.509486
 20
88.998430
 30
0.0
  0
LWPOLYLINE
  5
14d
100
AcDbEntity
  8
0
 62
2
100
AcDbPolyline
 90
38
 70
1
 10
56.999809
 20
132.001880
 30
0.0
 10
46.999902
 20
132.000880
 30
0.0
 10
46.999902
 20
129.000000
 30
0.0
 10
36.999996
 20
129.000000
 30
0.0
 10
36.999996
 20
132.000330
 30
0.0
 10
27.000089
 20
132.000330
 30
0.0
 10
27.000089
 20
129.000000
 30
0.0
 10
20.000000
 20
129.000000
 30
0.0
 10
20.000000
 20
102.996930
 30
0.0
 10
27.000089
 20
102.996930
 30
0.0
 10
27.000089
 20
100.001250
 30
0.0
 10
36.999996
 20
100.001250
 30
0.0
 10
36.999996
 20
102.996420
 30
0.0
 10
36.999996
 20
103.000420
 30
0.0
 10
47.000419
 20
103.000420
 30
0.0
 10
47.000419
 20
100.001120
 30
0.0
 10
57.000325
 20
100.001120
 30
0.0
 10
57.000325
 20
102.999900
 30
0.0
 10
67.000232
 20
102.999900
 30
0.0
 10
67.000232
 20
100.001120
 30
0.0
 10
77.000138
 20
100.001120
 30
0.0
 10
77.000138
 20
102.999900
 30
0.0
 10
87.000045
 20
102.999900
 30
0.0
 10
87.000045
 20
100.000600
 30
0.0
 10
96.999951
 20
100.000600
 30
0.0
 10
96.999951
 20
102.999000
 30
0.0
 10
104.995850
 20
102.999000
 30
0.0
 10
104.999850
 20
103.001000
 30
0.0
 10
104.999850
 20
129.000510
 30
0.0
 10
96.999951
 20
129.000000
 30
0.0
 10
96.999951
 20
132.001360
 30
0.0
 10
87.000045
 20
132.001880
 30
0.0
 10
87.000045
 20
129.002060
 30
0.0
 10
77.000138
 20
129.002060
 30
0.0
 10
77.000138
 20
132.001880
 30
0.0
 10
67.000232
 20
132.001880
 30
0.0
 10
67.000232
 20
129.001030
 30
0.0
 10
56.999809
 20
129.001030
 30
0.0
  0
LWPOLYLINE
  5
14e
100
AcDbEntity
  8
0
 62
2
100
AcDbPolyline
 90
36
 70
1
 10
118.000550
 20
97.015330
 30
0.0
 10
118.000550
 20
94.004670
 30
0.0
 10
110.000000
 20
94.000010
 30
0.0
 10
110.000000
 20
68.000050
 30
0.0
 10
118.000550
 20
68.001050
 30
0.0
 10
118.000550
 20
65.015190
 30
0.0
 10
128.000460
 20
65.014190
 30
0.0
 10
128.000460
 20
67.999020
 30
0.0
 10
138.000360
 20
67.999020
 30
0.0
 10
138.000360
 20
65.014190
 30
0.0
 10
148.000270
 20
65.014190
 30
0.0
 10
148.000270
 20
68.000050
 30
0.0
 10
158.000690
 20
68.000050
 30
0.0
 10
158.000690
 20
65.014190
 30
0.0
 10
168.000600
 20
65.014190
 30
0.0
 10
168.000600
 20
68.000050
 30
0.0
 10
178.000500
 20
68.000050
 30
0.0
 10
178.000500
 20
65.014190
 30
0.0
 10
187.999890
 20
65.014190
 30
0.0
 10
187.999890
 20
68.000050
 30
0.0
 10
194.999980
 20
68.000050
 30
0.0
 10
194.999980
 20
94.003110
 30
0.0
 10
187.999890
 20
94.003110
 30
0.0
 10
187.999890
 20
97.014300
 30
0.0
 10
177.999990
 20
97.014300
 30
0.0
 10
177.999990
 20
94.013970
 30
0.0
 10
168.000080
 20
94.013970
 30
0.0
 10
168.000080
 20
97.014820
 30
0.0
 10
158.000170
 20
97.014820
 30
0.0
 10
158.000170
 20
94.013970
 30
0.0
 10
147.999750
 20
94.013970
 30
0.0
 10
147.999750
 20
97.014820
 30
0.0
 10
137.999850
 20
97.014820
 30
0.0
 10
137.999850
 20
94.013970
 30
0.0
 10
127.999940
 20
94.013970
 30
0.0
 10
127.999940
 20
97.015330
 30
0.0
  0
LWPOLYLINE
  5
14f
100
AcDbEntity
  8
0
 62
2
100
AcDbPolyline
 90
21
 70
1
 10
123.928350
 20
89.001350
 30
0.0
 10
189.928460
 20
89.001350
 30
0.0
 10
191.098338
 20
88.766267
 30
0.0
 10
192.051620
 20
88.124435
 30
0.0
 10
192.693277
 20
87.170978
 30
0.0
 10
192.928280
 20
86.001020
 30
0.0
 10
192.928280
 20
84.001140
 30
0.0
 10
192.693277
 20
82.831262
 30
0.0
 10
192.051620
 20
81.877980
 30
0.0
 10
191.098338
 20
81.236323
 30
0.0
 10
189.928460
 20
81.001320
 30
0.0
 10
123.928350
 20
81.001320
 30
0.0
 10
122.758473
 20
81.236323
 30
0.0
 10
121.805195
 20
81.877980
 30
0.0
 10
121.163542
 20
82.831262
 30
0.0
 10
120.928540
 20
84.001140
 30
0.0
 10
120.928540
 20
86.001020
 30
0.0
 10
121.163542
 20
87.170978
 30
0.0
 10
121.805195
 20
88.124435
 30
0.0
 10
122.758473
 20
88.766267
 30
0.0
 10
123.928350
 20
89.001350
 30
0.0
  0
LWPOLYLINE
  5
150
100
AcDbEntity
  8
0
 62
2
100
AcDbPolyline
 90
36
 70
1
 10
118.000550
 20
132.001360
 30
0.0
 10
118.000550
 20
129.005170
 30
0.0
 10
110.000000
 20
129.000000
 30
0.0
 10
110.000000
 20
103.000030
 30
0.0
 10
118.000550
 20
103.001030
 30
0.0
 10
118.000550
 20
100.001210
 30
0.0
 10
128.000460
 20
100.000210
 30
0.0
 10
128.000460
 20
102.999000
 30
0.0
 10
138.000360
 20
102.999000
 30
0.0
 10
138.000360
 20
100.000220
 30
0.0
 10
148.000270
 20
100.000220
 30
0.0
 10
148.000270
 20
103.000030
 30
0.0
 10
158.000690
 20
103.000030
 30
0.0
 10
158.000690
 20
100.000220
 30
0.0
 10
168.000600
 20
100.000220
 30
0.0
 10
168.000600
 20
103.000030
 30
0.0
 10
178.000500
 20
103.000030
 30
0.0
 10
178.000500
 20
100.000220
 30
0.0
 10
187.999890
 20
100.000220
 30
0.0
 10
187.999890
 20
103.000030
 30
0.0
 10
194.999980
 20
103.000030
 30
0.0
 10
194.999980
 20
129.003100
 30
0.0
 10
187.999890
 20
129.003100
 30
0.0
 10
187.999890
 20
132.000330
 30
0.0
 10
177.999990
 20
132.000330
 30
0.0
 10
177.999990
 20
129.000000
 30
0.0
 10
168.000080
 20
129.000000
 30
0.0
 10
168.000080
 20
132.000850
 30
0.0
 10
158.000170
 20
132.000850
 30
0.0
 10
158.000170
 20
129.000000
 30
0.0
 10
147.999750
 20
129.000000
 30
0.0
 10
147.999750
 20
132.000850
 30
0.0
 10
137.999850
 20
132.000850
 30
0.0
 10
137.999850
 20
129.000000
 30
0.0
 10
127.999940
 20
129.000000
 30
0.0
 10
127.999940
 20
132.001360
 30
0.0
  0
LWPOLYLINE
  5
151
100
AcDbEntity
  8
0
 62
2
100
AcDbPolyline
 90
21
 70
1
 10
123.928350
 20
116.001820
 30
0.0
 10
189.928460
 20
116.001820
 30
0.0
 10
191.098338
 20
115.766737
 30
0.0
 10
192.051620
 20
115.124905
 30
0.0
 10
192.693277
 20
114.171448
 30
0.0
 10
192.928280
 20
113.001490
 30
0.0
 10
192.928280
 20
111.001610
 30
0.0
 10
192.693277
 20
109.831733
 30
0.0
 10
192.051620
 20
108.878455
 30
0.0
 10
191.098338
 20
108.236802
 30
0.0
 10
189.928460
 20
108.001800
 30
0.0
 10
123.928350
 20
108.001800
 30
0.0
 10
122.758473
 20
108.236802
 30
0.0
 10
121.805195
 20
108.878455
 30
0.0
 10
121.163542
 20
109.831733
 30
0.0
 10
120.928540
 20
111.001610
 30
0.0
 10
120.928540
 20
113.001490
 30
0.0
 10
121.163542
 20
114.171448
 30
0.0
 10
121.805195
 20
115.124905
 30
0.0
 10
122.758473
 20
115.766737
 30
0.0
 10
123.928350
 20
116.001820
 30
0.0
  0
ENDSEC
  0
SECTION
  2
OBJECTS
  0
DICTIONARY
  5
C
330
0
100
AcDbDictionary
  3
ACAD_GROUP
350
D
  3
ACAD_MLINESTYLE
350
17
  0
DICTIONARY
  5
D
330
C
100
AcDbDictionary
  0
DICTIONARY
  5
1A
330
C
100
AcDbDictionary
  0
DICTIONARY
  5
17
330
C
100
AcDbDictionary
  3
STANDARD
350
18
  0
DICTIONARY
  5
19
330
C
100
AcDbDictionary
  0
ENDSEC
  0
EOF
