<?xml version="1.0" encoding="UTF-8" standalone="no"?>
<!-- Created with Inkscape (http://www.inkscape.org/) -->

<svg
   width="210mm"
   height="297mm"
   viewBox="0 0 210 297"
   version="1.1"
   id="svg1"
   xml:space="preserve"
   xmlns="http://www.w3.org/2000/svg"
   xmlns:svg="http://www.w3.org/2000/svg"><defs
     id="defs1" /><g
     id="layer1"><path
       id="path3"
       style="fill:#d15f35;fill-opacity:1;stroke:#c2c200;stroke-width:0"
       d="m 2,110 c -1.66e-5,4.4183 3.5817272,8.00005 8.000028,8.00003 L 15,121 l -2.78e-4,18.99972 c -1.14e-4,2.76159 2.238624,5.00032 5.000212,5.00021 h 27.999841 55.000265 l 2.34972,-3.75998 c 1.64855,-2.63772 4.53967,-4.2401 7.65018,-4.24005 h 76.99995 c 2.76159,1.2e-4 5.00033,-2.23862 5.00022,-5.00021 L 195,121 l 4.9998,-2.99997 c 2.8582,-4e-5 5.49926,-1.52495 6.92826,-4.00028 1.42907,-2.47522 1.42907,-5.52481 0,-8.00003 -1.42914,-2.47514 -4.07017,-3.99983 -6.92826,-3.99975 L 195,98.999997 l 1.1e-4,-11.000215 c 1.1e-4,-2.761591 -2.23863,-5.000329 -5.00022,-5.00021 h -76.99995 c -3.11041,1.6e-4 -6.00151,-1.602016 -7.65018,-4.23954 l -2.34972,-3.76049 H 60.000083 19.999934 c -2.761588,-1.15e-4 -5.000326,2.238622 -5.000212,5.00021 L 15,98.999997 10.000028,101.99997 C 5.581728,101.99997 1.9999845,105.5817 2,110 Z m 1.999878,0 c 6.63e-5,-1.10447 0.895403,-1.99981 1.999878,-1.99988 h 1.5461589 c 0.7127634,-1.23445 2.0286057,-1.99632 3.4540511,-1.99988 2.20895,1.3e-4 3.999623,1.79081 3.999756,3.99976 -1.38e-4,2.20895 -1.79081,3.99962 -3.999756,3.99975 -1.4251538,-0.004 -2.7407323,-0.76527 -3.4535351,-1.99936 H 5.999756 v -5.1e-4 C 4.895281,111.99981 3.9999443,111.10447 3.999878,110 Z m 13.000239,25.00002 V 124.9996 h 1.999878 v 10.00042 z m 0,-20.00033 v -9.99991 h 1.999878 v 9.99991 z m 0,-19.999818 v -9.99991 h 1.999878 v 9.99991 z m 5.999634,47.999658 v -1.99987 h 9.999906 v 1.99987 z m 0,-63.999718 v -1.99988 h 9.999906 v 1.99988 z M 43.00008,142.99953 v -1.99987 h 9.999909 v 1.99987 z m 0,-63.999718 v -1.99988 h 9.999909 v 1.99988 z m 9.819556,54.055108 c -2.8e-5,-0.6904 0.559659,-1.25008 1.250057,-1.25005 0.690395,-3e-5 1.250078,0.55966 1.25005,1.25005 2.8e-5,0.69039 -0.559655,1.25008 -1.25005,1.25005 -0.690398,3e-5 -1.250085,-0.55965 -1.250057,-1.25005 z m 5.17e-4,-46.110368 c -3.3e-5,-0.690403 0.559657,-1.250093 1.25006,-1.25006 0.690399,-2.8e-5 1.250083,0.559661 1.25005,1.25006 2.8e-5,0.690395 -0.559655,1.250078 -1.25005,1.25005 -0.690399,3.3e-5 -1.250088,-0.559651 -1.25006,-1.25005 z m 10.17974,56.054978 v -1.99987 h 9.99991 v 1.99987 z m 0,-63.999718 v -1.99988 h 9.99991 v 1.99988 z m 5.83014,54.055108 c -2.8e-5,-0.69039 0.559655,-1.25008 1.25005,-1.25005 0.690395,-3e-5 1.250078,0.55966 1.25005,1.25005 2.8e-5,0.69039 -0.559655,1.25008 -1.25005,1.25005 -0.690395,3e-5 -1.250078,-0.55966 -1.25005,-1.25005 z m 0,-46.110368 c -3.3e-5,-0.690399 0.559651,-1.250088 1.25005,-1.25006 0.690399,-2.8e-5 1.250083,0.559661 1.25005,1.25006 2.8e-5,0.690395 -0.559655,1.250078 -1.25005,1.25005 -0.690395,2.8e-5 -1.250078,-0.559655 -1.25005,-1.25005 z m 13.16974,46.255578 c -2.49e-4,-0.55244 0.447503,-1.00042 0.99994,-1.00045 0.552437,3e-5 1.000189,0.44801 0.99994,1.00045 -3.3e-5,0.55224 -0.447702,0.99991 -0.99994,0.99994 -0.552238,-3e-5 -0.999907,-0.4477 -0.99994,-0.99994 z m 0,-46.700518 c 3.3e-5,-0.552238 0.447702,-0.999907 0.99994,-0.99994 0.552238,3.3e-5 0.999907,0.447702 0.99994,0.99994 2.54e-4,0.552441 -0.447499,1.000427 -0.99994,1.00046 -0.552441,-3.3e-5 -1.000194,-0.448019 -0.99994,-1.00046 z m 0.99994,56.499918 v -1.99987 h 10.00042 v 1.99987 z m 0,-63.999718 v -1.99988 h 10.00042 v 1.99988 z m 10.00042,54.199798 c 3.9e-5,-0.55223 0.447706,-0.9999 0.99994,-0.99993 0.552234,3e-5 0.999901,0.4477 0.99994,0.99993 -3.3e-5,0.55224 -0.447702,0.99991 -0.99994,0.99994 -0.552238,-3e-5 -0.999907,-0.4477 -0.99994,-0.99994 z m 0,-46.699478 c -2.54e-4,-0.552441 0.447499,-1.000427 0.99994,-1.00046 0.552441,3.3e-5 1.000194,0.448019 0.99994,1.00046 -3.3e-5,0.552238 -0.447702,0.999907 -0.99994,0.99994 -0.552238,-3.3e-5 -0.999907,-0.447702 -0.99994,-0.99994 z m 12.749607,40.899838 c -3e-5,-0.69039 0.55966,-1.25008 1.25005,-1.25005 0.6904,-3e-5 1.25009,0.55965 1.25006,1.25005 3e-5,0.6904 -0.55966,1.25008 -1.25006,1.25005 -0.69039,3e-5 -1.25008,-0.55966 -1.25005,-1.25005 z m 0,-34.799948 c -3e-5,-0.690399 0.55965,-1.250088 1.25005,-1.25006 0.6904,-3.3e-5 1.25009,0.559657 1.25006,1.25006 -2.6e-4,0.690196 -0.55986,1.249563 -1.25006,1.24953 -0.69019,2.8e-5 -1.24979,-0.559338 -1.25005,-1.24953 z m 7.2502,42.398968 v -1.99833 h 9.99991 v 1.99833 z m 0,-48.000178 v -1.99781 h 9.99991 v 1.99781 z m 19.99982,48.000178 v -1.99833 h 9.9999 v 1.99833 z m 0,-48.000178 v -1.99781 h 9.9999 v 1.99781 z m 20.00033,48.000178 v -1.99833 h 9.9999 v 1.99833 z m 0,-48.000178 v -1.99781 h 9.9999 v 1.99781 z m 19.99981,48.000178 v -1.99833 h 9.9999 v 1.99833 z m 0,-48.000178 v -1.99781 h 9.9999 v 1.99781 z M 183.95013,110 c -3e-5,-0.6902 0.55934,-1.24981 1.24954,-1.25006 0.6904,-3e-5 1.25008,0.55966 1.25005,1.25006 3e-5,0.69039 -0.55966,1.25008 -1.25005,1.25005 -0.6902,-2.5e-4 -1.24957,-0.55985 -1.24954,-1.25005 z m 7.0497,21.99969 v -7.00009 h 1.99988 v 7.00009 z m 0,-17 v -9.99991 h 1.99988 v 9.99991 z m 0,-19.999818 v -7.00009 h 1.99988 v 7.00009 z M 195.00011,110 c -1.5e-4,-2.20915 1.7906,-4.00014 3.99975,-4.00028 1.42526,0.004 2.74087,0.76558 3.45354,1.99988 h 1.54667 c 1.10468,7e-5 2.0001,0.89572 1.99988,2.0004 -7e-5,1.10448 -0.8954,1.99981 -1.99988,1.99988 h -1.54667 c -0.71267,1.23429 -2.02828,1.99613 -3.45354,1.99987 -2.20894,-1.4e-4 -3.99961,-1.79081 -3.99975,-3.99975 z" /><path
       id="path3-2"
       style="display:inline;fill:#d15f35;fill-opacity:1;stroke:#c2c200;stroke-width:0"
       d="m 208.00005,39.999927 c 2e-5,-4.418301 -3.58173,-8.000047 -8.00003,-8.00003 L 195,28.999999 195.00032,10.00021 c 1.1e-4,-2.7615868 -2.23862,-5.0003236 -5.00021,-5.0002101 H 162.00027 107 l -2.34972,3.75998 c -1.64855,2.6377171 -4.53967,4.2400981 -7.650174,4.2400501 H 20.000145 c -2.761591,-1.19e-4 -5.000334,2.238619 -5.00022,5.00021 L 15,28.999999 10.000234,31.999897 c -2.8582023,3.8e-5 -5.4992576,1.524946 -6.9282587,4.00028 -1.4290739,2.475216 -1.4290739,5.524814 0,8.00003 1.4291358,2.47513 4.0701657,3.999821 6.9282587,3.99975 L 15,50.999999 l -7.5e-5,11.000138 c -1.14e-4,2.761591 2.238629,5.000329 5.00022,5.00021 h 76.999961 c 3.110404,-1.58e-4 6.001504,1.602018 7.650174,4.23954 L 107,75.000377 h 42.99996 40.00015 c 2.76159,1.14e-4 5.00032,-2.238623 5.00021,-5.00021 L 195,50.999999 l 5.00004,-3.000042 c 4.4183,0 8.00005,-3.581729 8.00003,-8.00003 z m -1.99988,0 c -7e-5,1.104476 -0.8954,1.999814 -1.99988,1.99988 h -1.54616 c -0.71276,1.234454 -2.0286,1.99632 -3.45405,1.99988 -2.20895,-1.33e-4 -3.99963,-1.790808 -3.99976,-3.99976 1.4e-4,-2.208948 1.79081,-3.999617 3.99976,-3.99975 1.42516,0.0036 2.74074,0.765264 3.45354,1.99936 h 1.54667 v 5.1e-4 c 1.10448,6.6e-5 1.99981,0.895404 1.99988,1.99988 z M 192.99993,14.99991 v 10.000414 h -1.99988 V 14.99991 Z m 0,20.000327 v 9.9999 h -1.99988 v -9.9999 z m 0,19.99981 v 9.99991 h -1.99988 v -9.99991 z M 187.0003,7.0003999 v 1.99987 h -9.99991 v -1.99987 z m 0,63.9997071 v 1.99988 h -9.99991 v -1.99988 z M 166.99997,7.0003999 v 1.99987 h -9.99991 v -1.99987 z m 0,63.9997071 v 1.99988 h -9.99991 v -1.99988 z M 157.18041,16.94501 c 3e-5,0.690399 -0.55966,1.250083 -1.25006,1.25005 -0.69039,2.8e-5 -1.25008,-0.559655 -1.25005,-1.25005 -3e-5,-0.690395 0.55966,-1.250078 1.25005,-1.25005 0.6904,-3.3e-5 1.25009,0.559651 1.25006,1.25005 z m -5.2e-4,46.110357 c 3e-5,0.690403 -0.55966,1.250093 -1.25006,1.25006 -0.6904,2.8e-5 -1.25008,-0.559661 -1.25005,-1.25006 -3e-5,-0.690395 0.55966,-1.250078 1.25005,-1.25005 0.6904,-3.3e-5 1.25009,0.559651 1.25006,1.25005 z M 147.00015,7.0003999 v 1.99987 h -9.99991 v -1.99987 z m 0,63.9997071 v 1.99988 h -9.99991 v -1.99988 z M 141.17001,16.94501 c 3e-5,0.690395 -0.55966,1.250078 -1.25005,1.25005 -0.69039,2.8e-5 -1.25008,-0.559655 -1.25005,-1.25005 -3e-5,-0.690395 0.55966,-1.250078 1.25005,-1.25005 0.69039,-2.8e-5 1.25008,0.559655 1.25005,1.25005 z m 0,46.110357 c 3e-5,0.690399 -0.55965,1.250088 -1.25005,1.25006 -0.6904,2.8e-5 -1.25008,-0.559661 -1.25005,-1.25006 -3e-5,-0.690395 0.55966,-1.250078 1.25005,-1.25005 0.69039,-2.8e-5 1.25008,0.559655 1.25005,1.25005 z M 128.00027,16.7998 c 2.5e-4,0.552437 -0.4475,1.000417 -0.99994,1.00045 -0.55244,-3.3e-5 -1.00019,-0.448013 -0.99994,-1.00045 3e-5,-0.552238 0.4477,-0.999907 0.99994,-0.99994 0.55224,3.3e-5 0.99991,0.447702 0.99994,0.99994 z m 0,46.700507 c -3e-5,0.552238 -0.4477,0.999907 -0.99994,0.99994 -0.55224,-3.3e-5 -0.99991,-0.447702 -0.99994,-0.99994 -2.5e-4,-0.552441 0.4475,-1.000427 0.99994,-1.00046 0.55244,3.3e-5 1.00019,0.448019 0.99994,1.00046 z M 127.00033,7.0003999 v 1.99987 h -10.00042 v -1.99987 z m 0,63.9997071 v 1.99988 h -10.00042 v -1.99988 z M 116.99991,16.80032 c -4e-5,0.552234 -0.44771,0.999897 -0.99994,0.99993 -0.55223,-3.3e-5 -0.9999,-0.447696 -0.99994,-0.99993 3e-5,-0.552238 0.4477,-0.999907 0.99994,-0.99994 0.55224,3.3e-5 0.99991,0.447702 0.99994,0.99994 z m 0,46.699467 c 2.5e-4,0.552441 -0.4475,1.000427 -0.99994,1.00046 -0.55244,-3.3e-5 -1.00019,-0.448019 -0.99994,-1.00046 3e-5,-0.552238 0.4477,-0.999907 0.99994,-0.99994 0.55224,3.3e-5 0.99991,0.447702 0.99994,0.99994 z M 104.2503,22.599947 c 3e-5,0.690395 -0.55966,1.250078 -1.25005,1.25005 -0.6904,3.3e-5 -1.25009,-0.559651 -1.25006,-1.25005 -3e-5,-0.690399 0.55966,-1.250083 1.25006,-1.25005 0.69039,-2.8e-5 1.25008,0.559655 1.25005,1.25005 z m 0,34.79995 c 3e-5,0.690399 -0.55965,1.250088 -1.25005,1.25006 -0.6904,3.3e-5 -1.25009,-0.559657 -1.25006,-1.25006 2.6e-4,-0.690196 0.55986,-1.249563 1.25006,-1.24953 0.69019,-2.8e-5 1.24979,0.559338 1.25005,1.24953 z M 97.000106,15.00094 v 1.99833 h -9.999909 v -1.99833 z m 0,48.000167 v 1.99781 h -9.999909 v -1.99781 z M 77.000287,15.00094 v 1.99833 h -9.9999 v -1.99833 z m 0,48.000167 v 1.99781 h -9.9999 v -1.99781 z M 56.999957,15.00094 v 1.99833 h -9.99991 v -1.99833 z m 0,48.000167 v 1.99781 h -9.99991 v -1.99781 z M 37.000135,15.00094 v 1.99833 h -9.9999 v -1.99833 z m 0,48.000167 v 1.99781 h -9.9999 v -1.99781 z m -10.95023,-23.00118 c 3.3e-5,0.6902 -0.55934,1.249806 -1.24954,1.25006 -0.690399,2.8e-5 -1.250083,-0.559661 -1.25005,-1.25006 -2.8e-5,-0.690395 0.559655,-1.250078 1.25005,-1.25005 0.690196,2.54e-4 1.249568,0.559854 1.24954,1.25005 z m -7.0497,-21.999687 v 7.000084 h -1.99988 V 18.00024 Z m 0,16.999997 v 9.9999 h -1.99988 v -9.9999 z m 0,19.99981 v 7.00009 h -1.99988 v -7.00009 z m -4.00028,-15.00012 c 1.55e-4,2.209151 -1.790599,4.000142 -3.99975,4.00028 -1.4252629,-0.0037 -2.7408682,-0.765584 -3.45354,-1.99988 H 5.9999653 c -1.1046789,-6.6e-5 -2.0001009,-0.895721 -1.99988,-2.0004 6.63e-5,-1.104476 0.8954042,-1.999814 1.99988,-1.99988 H 7.546635 c 0.7126743,-1.234292 2.0282792,-1.996131 3.45354,-1.99987 2.208944,1.38e-4 3.999612,1.790806 3.99975,3.99975 z" /><path
       id="rect3-6"
       style="fill:#d1d940;fill-opacity:1;stroke:#c2c200;stroke-width:0"
       d="m 73.999837,266.99999 2.04e-4,-2.99952 h 3.99963 v -25.99996 h -3.99963 l -2.04e-4,-3.00052 h -10.00042 l 2.04e-4,3 h -9.9999 l -2.04e-4,-3 h -9.9999 l 2.04e-4,3 h -9.99991 l -2.04e-4,-3 h -9.99991 l 2.04e-4,3 h -4.00033 v 26.00048 h 4.00033 l -2.04e-4,2.99952 h 9.99991 l 2.04e-4,-2.99952 h 9.99991 l -2.04e-4,2.99952 h 9.9999 l 2.04e-4,-2.99952 h 9.9999 l -2.04e-4,2.99952 z" /><path
       id="rect3-6-4-3"
       style="fill:#d1d940;fill-opacity:1;stroke:#c2c200;stroke-width:0"
       d="m 85.000002,234.99947 v 5.2e-4 31.99959 h 7.000089 V 264.0716 H 102 v 2.92798 h 9.9999 v -2.92798 h 9.99991 v 2.92798 h 7.00009 v -31.99959 -5.2e-4 h -7.00009 v 3.00033 h -9.99991 v -3.00033 H 102 v 3.00033 h -9.999909 v -3.00033 z" /><path
       id="rect3-2-1-1-9"
       style="fill:#d1d940;fill-opacity:1;stroke:#c2c200;stroke-width:0"
       d="m 27.000001,199.99999 v 3.00137 h -7.000089 v 26.00306 h 7.000089 v 2.9962 h 9.999907 v -2.9962 h 9.999906 v 2.9962 h 9.999907 v -2.9962 h 10.000423 v 2.9962 l 9.999906,5.2e-4 v -2.99775 h 9.999907 v 2.99775 l 9.999906,5.2e-4 v -2.99569 l 8.000027,-0.005 V 203.001 l -8.000027,0.001 v -3.00137 h -9.999906 v 3.00033 H 77.00005 v -3.00085 h -9.999906 v 3.00085 h -9.999907 v -3.00085 H 46.999814 v 3.00137 h -9.999906 v -3.00137 z m 5.259628,6.50141 h 11.000362 v 9.00049 H 32.259629 Z m 55.249857,1.50017 h 10.000423 c 1.107993,0 1.999878,0.89188 1.999878,1.99988 v 4.00027 c 0,1.10799 -0.891885,1.99988 -1.999878,1.99988 H 87.509486 c -1.107993,0 -1.999878,-0.89189 -1.999878,-1.99988 v -4.00027 c 0,-1.108 0.891885,-1.99988 1.999878,-1.99988 z" /><path
       id="rect3-2-1-1-9-3"
       style="fill:#d1d940;fill-opacity:1;stroke:#c2c200;stroke-width:0"
       d="m 56.999809,164.99812 -9.999907,0.001 V 168 h -9.999906 v -3.00033 H 27.000089 V 168 H 20 v 26.00307 h 7.000089 v 2.99568 h 9.999907 v -2.99517 -0.004 h 10.000423 v 2.9993 h 9.999906 v -2.99878 h 9.999907 v 2.99878 h 9.999906 v -2.99878 h 9.999907 v 2.9993 h 9.999906 v -2.9984 h 7.995899 l 0.004,-0.002 V 167.99949 L 96.999951,168 v -3.00136 l -9.999906,-5.2e-4 v 2.99982 h -9.999907 v -2.99982 h -9.999906 v 3.00085 H 56.999809 Z" /><path
       id="rect3-2-1-1-9-5"
       style="fill:#d1d940;fill-opacity:1;stroke:#c2c200;stroke-width:0"
       d="m 118.00055,199.98467 v 3.01066 L 110,202.99999 v 25.99996 l 8.00055,-0.001 v 2.98586 l 9.99991,10e-4 v -2.98483 h 9.9999 v 2.98483 h 9.99991 v -2.98586 h 10.00042 v 2.98586 h 9.99991 v -2.98586 h 9.9999 v 2.98586 h 9.99939 v -2.98586 h 7.00009 v -26.00306 h -7.00009 v -3.01119 h -9.9999 v 3.00033 h -9.99991 v -3.00085 h -9.99991 v 3.00085 h -10.00042 v -3.00085 h -9.9999 v 3.00085 h -9.99991 v -3.00136 z m 5.9278,8.01398 h 66.00011 c 1.662,0 2.99982,1.33833 2.99982,3.00033 v 1.99988 c 0,1.662 -1.33782,2.99982 -2.99982,2.99982 h -66.00011 c -1.662,0 -2.99981,-1.33782 -2.99981,-2.99982 v -1.99988 c 0,-1.662 1.33781,-3.00033 2.99981,-3.00033 z" /><path
       id="rect3-2-1-1-9-9"
       style="fill:#d1d940;fill-opacity:1;stroke:#c2c200;stroke-width:0"
       d="m 118.00055,164.99864 v 2.99619 L 110,168 v 25.99997 l 8.00055,-10e-4 v 2.99982 l 9.99991,10e-4 V 194.001 h 9.9999 v 2.99878 h 9.99991 v -2.99981 h 10.00042 v 2.99981 h 9.99991 v -2.99981 h 9.9999 v 2.99981 h 9.99939 v -2.99981 h 7.00009 V 167.9969 h -7.00009 v -2.99723 h -9.9999 V 168 h -9.99991 v -3.00085 h -9.99991 V 168 h -10.00042 v -3.00085 h -9.9999 V 168 h -9.99991 v -3.00136 z m 5.9278,15.99954 h 66.00011 c 1.662,0 2.99982,1.33833 2.99982,3.00033 v 1.99988 c 0,1.662 -1.33782,2.99981 -2.99982,2.99981 h -66.00011 c -1.662,0 -2.99981,-1.33781 -2.99981,-2.99981 v -1.99988 c 0,-1.662 1.33781,-3.00033 2.99981,-3.00033 z" /></g></svg>
